<svg version="1.1" id="Layer_1" xmlns="http://www.w3.org/2000/svg" xmlns:xlink="http://www.w3.org/1999/xlink" x="0px" y="0px"
	 width="100%" viewBox="0 0 1024 1024" enable-background="new 0 0 1024 1024" xml:space="preserve">
<path fill="#000000" opacity="1.000000" stroke="none" 
	d="
M965.348267,524.991028 
	C964.872498,546.948608 962.166809,568.143555 958.556519,589.295044 
	C949.747375,640.905396 931.646484,689.155090 905.345947,734.182678 
	C868.100708,797.947754 818.639221,850.277161 756.248657,890.241455 
	C707.423828,921.516052 654.686340,942.623962 597.712097,953.345520 
	C563.738953,959.738708 529.478699,962.814819 494.990509,961.142639 
	C443.652130,958.653564 393.966278,948.142761 346.103821,928.956177 
	C302.778870,911.588684 262.705688,888.780151 226.625214,859.218811 
	C159.400146,804.139893 111.602295,735.456787 83.218834,653.231018 
	C74.236633,627.209961 68.668236,600.504517 64.447990,573.366882 
	C59.506367,541.590576 59.103661,509.584167 61.098602,477.775909 
	C65.539810,406.963257 86.336899,340.790161 121.610855,279.148438 
	C141.873703,243.738876 166.923615,212.185944 196.423004,184.087051 
	C234.004547,148.289749 275.850250,118.837585 323.459442,97.724121 
	C361.387451,80.904022 400.732269,69.030518 441.738312,62.896347 
	C462.440033,59.799534 483.286041,58.182915 504.258026,57.423512 
	C523.971558,56.709679 543.565063,57.564995 563.017090,59.879681 
	C623.040955,67.022217 680.095215,83.767273 733.185059,113.393631 
	C778.733765,138.811722 818.674927,171.007324 853.891052,209.373596 
	C877.515686,235.111511 896.120239,264.161469 912.674500,294.734070 
	C934.978333,335.924927 949.816528,379.682007 958.054626,425.688995 
	C961.301636,443.822449 963.107544,462.159943 964.529968,480.556854 
	C965.664001,495.223999 964.942749,509.853546 965.348267,524.991028 
M638.348206,402.109680 
	C661.957031,419.999573 673.167664,445.363251 680.113037,473.795959 
	C685.856018,469.095642 690.890747,465.609650 696.080994,462.318512 
	C701.279846,459.021942 707.436890,457.134125 712.093567,452.367828 
	C697.753113,442.553741 687.791565,429.809753 679.846252,415.310394 
	C664.273071,386.891083 661.085938,356.269165 664.716309,324.785797 
	C667.730591,298.645447 675.992737,273.876251 687.742371,250.344177 
	C701.471313,222.847977 724.200256,208.679382 754.531677,206.786880 
	C775.145264,205.500687 795.342590,208.379684 814.938416,215.105652 
	C816.741943,215.724640 818.467346,217.008713 820.640198,216.288544 
	C769.068604,157.756195 658.671265,85.340195 517.389282,85.061432 
	C396.135315,84.822189 292.822784,127.145355 206.968079,212.886597 
	C208.625824,214.701416 209.594391,214.580231 210.593582,214.342819 
	C215.113571,213.268860 219.594116,211.966827 224.162552,211.168884 
	C251.122208,206.459930 275.425873,212.167664 296.356781,230.217194 
	C323.063263,253.247192 333.433014,283.940399 336.183563,317.764191 
	C337.712860,336.570190 335.179688,355.256989 331.593536,373.763245 
	C328.216187,391.191742 324.506714,408.623566 323.562714,426.367645 
	C322.581909,444.802917 323.065918,463.242157 325.380463,481.661194 
	C326.723389,492.348297 333.329346,498.934875 340.183655,506.380737 
	C341.164215,504.566467 341.975739,503.468231 342.391510,502.236359 
	C351.758484,474.484650 365.655121,449.228821 384.068054,426.458466 
	C385.563934,424.608643 385.802429,422.642639 385.368988,420.373993 
	C382.785797,406.852966 379.636353,393.437836 378.174194,379.709656 
	C376.857483,367.346741 378.898163,355.812775 386.241394,345.598816 
	C392.224884,337.276154 399.566956,330.264252 408.196991,324.699615 
	C410.696411,323.088043 411.446899,321.471344 410.331940,318.532959 
	C408.388214,313.410461 406.754517,308.158630 405.223389,302.893372 
	C399.362640,282.739868 395.666748,262.136566 393.901031,241.269150 
	C392.886597,229.280701 394.760559,217.614807 403.898315,208.442535 
	C404.992798,207.343918 405.586426,206.019135 405.617981,204.416626 
	C405.811218,194.597946 407.309296,184.899582 408.792084,175.235260 
	C410.506989,164.057648 412.601379,152.857605 419.393311,143.352097 
	C429.281281,129.513580 443.955719,123.827148 459.774597,120.759682 
	C480.420197,116.756256 501.249481,115.500381 522.298035,117.502563 
	C534.897156,118.701027 547.358276,120.153053 559.585571,123.597389 
	C596.802551,134.081161 618.104553,166.642609 617.435303,201.182739 
	C617.163757,215.200485 615.640259,229.020401 613.235657,242.780838 
	C612.868896,244.879639 612.716858,246.476990 614.700684,248.012222 
	C629.149414,259.193481 630.547607,280.609039 623.605774,295.478394 
	C618.451599,306.518677 610.711792,314.898712 597.702454,316.495850 
	C594.815613,316.850220 594.052490,318.991821 593.379028,321.311951 
	C590.465881,331.349030 587.872681,341.500122 583.794006,351.149567 
	C581.674561,356.163910 582.101013,360.793732 584.536377,365.514740 
	C586.059692,368.467804 587.418152,371.527374 588.580444,374.639984 
	C590.111084,378.738922 592.895264,380.801605 597.153259,381.950775 
	C611.916138,385.935120 625.570679,392.361511 638.348206,402.109680 
M881.393311,361.826019 
	C882.960449,354.905182 883.464233,348.016815 880.754883,341.229065 
	C877.875122,334.014465 871.244873,330.142639 865.180359,332.130859 
	C856.331421,335.031952 854.782654,334.018280 853.831604,324.691162 
	C853.764038,324.028809 853.729858,323.361359 853.715637,322.695526 
	C853.462341,310.849091 851.395874,299.271881 848.714478,287.765045 
	C844.985718,271.763611 836.184448,260.134827 820.655518,253.840500 
	C815.073975,251.578125 809.426941,249.503387 803.560547,248.451218 
	C778.430603,243.944077 753.149048,242.091232 727.614807,244.396118 
	C714.558350,245.574677 704.998779,251.135468 699.999756,263.670410 
	C698.399292,267.683441 696.281555,271.487549 694.549927,275.452545 
	C694.068237,276.555481 693.044189,277.797852 694.238220,279.235596 
	C696.133301,279.966034 698.041931,279.397766 700.018860,279.128784 
	C707.668701,278.088074 715.293701,278.411682 722.795349,280.276062 
	C725.547791,280.960144 728.259705,281.953766 729.475281,284.963287 
	C730.730225,288.070007 730.959839,291.187103 728.937866,294.007477 
	C726.968872,296.754028 724.075317,297.303772 720.904907,296.593933 
	C711.780762,294.551086 702.741577,295.241852 693.723083,297.315704 
	C689.397644,298.310364 686.838867,301.017853 685.449219,305.131683 
	C678.032410,327.088196 677.135132,349.584930 681.442322,372.079407 
	C687.352051,402.943268 701.173950,428.782471 730.495728,444.024506 
	C735.839844,446.802490 739.710083,451.409698 740.542053,458.106567 
	C741.235474,463.688477 744.085571,468.411743 748.395325,472.206940 
	C757.687073,480.389191 768.804199,484.264984 780.860107,484.532379 
	C804.463501,485.055878 822.077820,473.606323 835.897339,455.326233 
	C838.865051,451.400665 840.828125,447.062866 841.529785,442.175812 
	C844.124634,424.104401 847.166382,406.127777 851.379395,388.337952 
	C852.693787,382.788055 855.574707,380.155548 860.837524,379.968140 
	C872.300171,379.559875 878.178284,372.842255 881.393311,361.826019 
M574.626099,230.722458 
	C572.364075,221.193390 570.004089,211.686035 567.882996,202.125702 
	C566.880188,197.605911 565.286560,193.081024 565.896118,188.376770 
	C566.833801,181.140442 568.016296,173.933441 569.217834,166.734528 
	C570.033813,161.845581 568.137024,158.996490 563.255981,158.417435 
	C561.445312,158.202637 559.592896,158.256622 557.762512,158.304535 
	C540.855225,158.747131 524.503357,162.589233 508.281708,166.863525 
	C495.252441,170.296631 482.297821,172.372009 468.946259,169.112427 
	C460.238586,166.986526 451.522644,165.015823 442.568176,164.008194 
	C433.242218,162.958786 429.797638,165.177841 428.342682,174.600998 
	C427.481842,180.176147 426.826630,185.783112 425.960541,191.357361 
	C424.940399,197.923111 425.281494,198.214890 431.912537,197.112854 
	C440.580109,195.672379 448.833862,197.472214 456.651001,201.120514 
	C461.388763,203.331635 463.041687,208.397614 461.051514,212.894424 
	C459.142944,217.206894 454.988647,218.403091 449.552216,216.168457 
	C448.476074,215.726105 447.489868,215.051025 446.398529,214.661758 
	C431.820984,209.461823 416.809326,213.260605 412.817047,229.856781 
	C411.926575,233.558762 411.366730,237.336243 411.310089,241.204483 
	C411.056915,258.498871 415.349976,275.082764 419.065979,291.752808 
	C420.114075,296.454620 420.658112,301.351654 423.165131,306.501251 
	C428.569031,298.176483 434.064209,291.106476 443.753113,288.054443 
	C436.665344,276.989655 438.658386,266.491974 444.309875,256.447998 
	C449.203888,247.750351 454.651611,239.356400 460.055084,230.957184 
	C462.204102,227.616714 465.521545,226.140747 469.569000,227.187302 
	C475.629791,228.754456 477.544098,234.418884 473.830811,240.833298 
	C469.493469,248.325729 464.469147,255.430588 460.316376,263.017517 
	C452.878143,276.606812 455.773193,280.966827 471.153168,280.776917 
	C477.409454,280.699646 484.235046,278.808350 489.803070,282.309357 
	C495.598114,285.953094 502.081635,288.180359 507.704468,291.989532 
	C516.705933,298.087555 524.425293,305.300568 526.971069,316.490479 
	C529.011475,325.458649 524.456726,331.136139 515.410156,331.403107 
	C505.851868,331.685120 496.465729,330.625000 487.288788,328.063934 
	C484.571808,327.305695 482.943268,327.780121 481.363281,330.035217 
	C477.885345,334.999268 473.388885,338.932281 468.432526,342.404694 
	C463.658752,345.749268 459.071533,349.359589 454.308533,352.720154 
	C451.292664,354.848022 451.002014,356.704834 453.768280,359.449921 
	C458.997314,364.638947 464.493927,369.435089 470.840027,373.205261 
	C473.338867,374.689789 475.519012,376.454437 476.270142,379.424713 
	C480.180847,394.889404 487.581177,408.897430 494.502045,423.102661 
	C495.567841,425.290283 496.214935,427.792908 498.937225,429.684021 
	C503.498383,424.893005 508.026764,420.062134 512.635254,415.308868 
	C529.592285,397.819183 545.505005,379.473267 559.240601,359.295166 
	C569.549988,344.150238 575.443604,327.332733 578.611633,309.440918 
	C580.006104,301.565857 582.698975,299.453888 590.426086,300.548309 
	C596.426575,301.398224 600.764099,298.585876 604.264282,294.236542 
	C608.122375,289.442352 610.200928,283.784607 610.581116,277.687317 
	C611.539001,262.327362 600.400513,253.279221 585.803284,257.372742 
	C580.735168,258.793976 578.431885,257.126160 577.691345,251.744629 
	C576.764893,245.012207 575.693726,238.299698 574.626099,230.722458 
M299.648804,282.836853 
	C288.468506,271.629547 276.996246,260.756714 264.665924,250.786621 
	C261.309692,248.072830 259.495056,248.538116 257.068970,251.718857 
	C250.381302,260.486633 242.579163,268.195282 234.273804,275.463287 
	C214.441620,292.818359 192.113998,306.964630 172.112045,324.090118 
	C168.959488,326.789307 165.604645,326.584961 161.836517,325.205719 
	C154.017044,322.343536 146.039673,325.234558 141.898987,332.054016 
	C135.864014,341.993225 137.120026,357.510437 144.667068,366.252228 
	C149.797287,372.194580 155.837692,374.347961 162.406769,371.690643 
	C166.900818,369.872711 167.797287,372.283905 168.236191,375.542389 
	C170.036041,388.904938 174.417725,401.368896 181.036331,413.069824 
	C183.473236,417.378021 184.494263,421.874847 184.437073,426.890808 
	C184.311844,437.871643 184.082977,448.821686 182.441071,459.703491 
	C182.003479,462.603546 182.568390,465.259186 184.402603,467.701599 
	C196.005096,483.151550 211.385330,490.988434 230.747604,490.669769 
	C243.248016,490.464050 251.830154,482.936279 253.626541,470.610626 
	C254.510590,464.544800 255.072540,458.426208 255.600418,452.315979 
	C256.072662,446.849548 258.094666,442.835541 263.837860,441.190216 
	C267.011993,440.280853 270.087494,438.869202 273.033569,437.347443 
	C293.897583,426.570404 304.596863,407.958130 311.531006,386.644257 
	C316.019745,372.846924 317.930573,358.580994 319.057678,344.101318 
	C320.841217,321.187988 316.657227,300.427246 299.648804,282.836853 
M655.273743,453.170013 
	C644.126587,423.526337 621.237610,407.372559 592.254639,398.086975 
	C587.380859,396.525482 584.609497,397.867676 582.147827,402.272705 
	C576.219421,412.881104 569.986755,423.326294 563.631775,433.687012 
	C559.472107,440.468628 554.418579,440.464874 550.060425,433.834167 
	C547.135986,429.384796 544.649902,424.648682 541.761047,420.174286 
	C538.780396,415.557739 537.729004,415.399811 533.753967,419.326111 
	C525.340942,427.635986 517.142700,436.163177 508.746460,444.490387 
	C505.808258,447.404480 503.911591,450.716766 502.932037,454.730103 
	C499.154633,470.206238 495.250702,485.651459 491.431488,501.117462 
	C490.869080,503.394836 490.763214,505.517578 492.307251,507.733185 
	C497.924744,515.793762 503.348175,523.990540 508.778442,532.179932 
	C509.948334,533.944275 511.420135,535.007629 513.438416,535.654053 
	C524.368469,539.154785 535.201538,542.973450 546.195862,546.254028 
	C555.078979,548.904602 563.792542,552.360718 573.267029,552.705994 
	C577.055237,552.844055 578.835266,551.548828 579.890869,547.717529 
	C583.330811,535.232178 585.613953,522.416199 590.278992,510.279358 
	C592.391296,504.783844 596.792053,502.486664 601.600952,504.113922 
	C606.263489,505.691650 608.155640,509.834412 606.625488,515.474915 
	C603.449158,527.183533 600.303040,538.902466 596.908997,550.548523 
	C596.000244,553.666992 596.666992,555.221497 599.728394,556.127930 
	C605.306946,557.779663 610.865906,559.510071 616.375671,561.376953 
	C619.746216,562.518982 621.596741,561.742004 623.405090,558.395264 
	C635.503174,536.004639 646.234070,512.771057 662.759644,493.043579 
	C664.753967,490.662842 664.908386,487.972260 664.331299,485.039124 
	C662.241699,474.417572 659.290405,464.045044 655.273743,453.170013 
M228.632187,554.053711 
	C247.425735,541.622742 267.441315,538.257629 288.980042,545.813843 
	C304.047058,551.099731 315.557098,560.708557 323.972473,574.185059 
	C327.321228,579.547729 327.663300,579.488037 332.364746,575.114929 
	C337.240784,570.579468 342.183044,566.106995 347.257050,561.796082 
	C349.539337,559.856995 349.917633,558.127930 348.666504,555.339111 
	C340.283295,536.652527 329.464417,519.536194 315.733826,504.351166 
	C304.579041,492.014740 291.869843,481.615784 276.485291,474.837158 
	C271.049561,472.442108 270.585999,472.666077 269.052368,478.288544 
	C267.955811,482.308624 266.558502,486.192078 264.340942,489.784515 
	C254.887527,505.099060 237.421524,509.385406 219.936584,506.941376 
	C197.394516,503.790497 179.951691,492.158356 168.322418,472.348633 
	C166.792877,469.743195 165.195602,469.056213 162.221725,469.989716 
	C153.473877,472.735748 144.909317,475.926086 136.482849,479.525208 
	C116.238647,488.171906 100.200714,501.578125 89.197823,520.830688 
	C87.795479,523.284424 87.143837,525.685608 87.367088,528.410645 
	C88.031082,536.515686 88.750183,544.616577 89.341148,552.726868 
	C89.480415,554.638062 90.389236,555.849792 91.941162,556.670105 
	C102.082024,562.030579 112.383575,567.049683 123.084450,571.493652 
	C126.975502,566.921936 128.684036,561.459351 131.252304,556.468140 
	C134.340561,550.466431 139.164383,548.388489 144.286301,550.740173 
	C148.549606,552.697632 149.595322,556.940857 147.168594,563.350952 
	C145.363953,568.117798 143.333389,572.799133 141.208603,577.995117 
	C151.968735,580.697327 162.346268,582.493103 172.831055,584.069519 
	C184.130875,585.768494 193.808701,583.526367 202.552338,576.120728 
	C211.057785,568.916870 218.568298,560.534851 228.632187,554.053711 
M231.582489,826.899048 
	C262.434296,854.034546 296.659210,875.871582 333.805298,893.451111 
	C335.095673,890.724426 334.807343,889.055908 334.730621,887.403442 
	C333.743774,866.147522 332.316071,844.900391 331.892303,823.633240 
	C331.432129,800.539795 330.320892,777.363342 333.653717,754.375732 
	C335.924164,738.715759 341.239838,724.375244 354.225525,714.087219 
	C358.891418,710.390686 363.622986,706.777100 368.492615,702.995117 
	C365.525940,697.303284 361.125610,693.353882 356.146667,689.975952 
	C350.395905,686.074097 349.876648,686.020264 346.994629,692.202759 
	C340.008423,707.189575 328.394592,716.512878 312.882874,721.606140 
	C305.294464,724.097839 297.598419,726.158813 289.945282,728.398438 
	C285.384857,729.733032 281.036987,730.390869 276.359863,728.681458 
	C274.476471,727.993164 272.051147,728.382690 269.954468,728.749939 
	C258.022766,730.839478 248.906265,737.234863 241.860352,747.006104 
	C233.994125,757.914978 228.013611,770.181213 218.030441,779.581421 
	C212.206253,785.065491 205.958694,789.889465 197.895004,793.869934 
	C208.717865,805.702637 219.512344,816.432739 231.582489,826.899048 
M483.217560,524.240662 
	C472.921967,507.636566 459.506073,495.071533 439.749908,490.766846 
	C434.396545,489.600403 429.053101,487.972900 423.636688,487.626282 
	C418.040039,487.268127 412.439758,485.529541 406.752838,486.998077 
	C405.121979,487.419220 403.179047,487.552887 402.818634,489.505066 
	C402.400848,491.768036 404.347717,492.670135 406.005798,493.409363 
	C407.974670,494.287048 410.048523,494.933228 412.088074,495.647766 
	C423.393341,499.608215 434.943207,503.026093 445.153778,509.538879 
	C450.403015,512.887085 451.652710,516.820740 449.209351,520.760315 
	C446.716675,524.779419 443.548431,525.266418 437.908661,522.504089 
	C427.575989,517.443237 417.082855,512.953430 405.587799,511.022949 
	C401.598480,510.352997 398.580109,510.909912 397.788635,514.828430 
	C397.034393,518.562683 400.564606,519.107422 403.307587,519.817322 
	C411.526062,521.944458 419.695526,524.212769 427.468781,527.712952 
	C431.450348,529.505737 435.173553,531.733643 438.399994,534.646179 
	C441.847900,537.758545 442.212097,542.004456 439.576630,545.390320 
	C436.754639,549.015808 433.439697,548.820557 429.886719,546.541504 
	C428.624908,545.732117 427.332611,544.970459 426.058716,544.179810 
	C417.896912,539.114319 408.532410,537.010254 399.719421,533.553589 
	C398.021484,532.887634 395.899750,532.936523 394.823669,534.881226 
	C393.846375,536.647278 395.205963,538.071655 396.185303,539.373352 
	C398.787048,542.831238 402.523468,544.763489 406.386475,546.330811 
	C416.929535,550.608276 425.818298,557.176086 433.637146,565.344177 
	C436.631134,568.471924 439.844604,571.388245 442.901398,574.457397 
	C449.438965,581.021240 457.083527,585.302368 466.381470,586.664795 
	C472.627289,587.579834 478.735046,589.105408 484.520447,591.874756 
	C514.264343,606.112671 543.503296,621.419373 573.962830,634.146362 
	C582.951904,637.902283 582.904114,637.968567 589.293213,631.230164 
	C590.781738,629.660217 592.322388,628.117798 593.989014,626.744812 
	C595.597107,625.420105 596.608582,623.807007 597.341919,621.897217 
	C601.101440,612.106812 604.916260,602.337646 608.698486,592.555969 
	C612.027771,583.945618 611.997314,584.017578 603.115906,581.331970 
	C571.760437,571.850586 540.431213,562.282043 509.069153,552.822510 
	C502.549103,550.855835 497.533142,547.343323 494.119904,541.252808 
	C490.950165,535.596741 487.150482,530.293701 483.217560,524.240662 
M600.501221,924.753662 
	C622.846619,920.144226 644.722778,913.951721 665.997742,905.646851 
	C694.655640,894.460022 721.723083,880.251038 747.410950,863.351868 
	C750.398743,861.386353 751.370850,859.814392 748.432129,856.840210 
	C744.502502,852.863159 742.234131,847.808167 740.738098,842.450928 
	C738.186584,833.313416 737.397949,823.850891 735.800232,814.541504 
	C733.292664,799.930908 733.495667,800.080200 718.830566,800.258484 
	C714.451965,800.311646 712.932373,802.239319 712.440796,806.013672 
	C711.433777,813.743896 710.046692,821.441467 709.420532,829.201233 
	C707.828979,848.925598 697.871521,862.197388 679.195068,868.456726 
	C651.088135,877.876709 622.794067,877.673889 595.249084,866.856140 
	C580.967102,861.247131 572.279053,850.120544 570.452148,833.936584 
	C568.892090,820.116577 565.997986,806.447083 564.558044,792.582153 
	C564.250610,789.622253 563.006042,788.083313 559.534302,789.184021 
	C554.053650,790.921631 550.810364,794.779053 550.419128,801.510681 
	C549.946533,809.641602 549.041565,817.742432 549.304260,825.927429 
	C550.014587,848.053406 550.603088,870.184326 551.056519,892.317078 
	C551.302063,904.306091 551.200012,916.302795 551.192078,928.296021 
	C551.190247,930.978577 551.532715,932.899658 555.030334,932.422058 
	C569.991821,930.379272 584.951538,928.345947 600.501221,924.753662 
M421.622955,625.658691 
	C419.428925,617.100037 417.234863,608.541382 414.854248,599.255005 
	C410.151031,632.591980 394.229614,657.605347 365.883942,674.352051 
	C366.463196,675.310181 366.660583,675.773743 366.977875,676.130859 
	C367.528412,676.750427 368.100983,677.371826 368.754608,677.875183 
	C377.946960,684.953003 384.259155,694.210022 389.300751,704.517761 
	C393.025024,712.132141 396.488342,719.907410 401.674683,726.725891 
	C420.177124,751.050903 456.840546,749.107910 472.593323,722.960571 
	C478.258759,713.556824 480.019897,703.084106 480.579712,692.413086 
	C481.181641,680.939819 480.341827,669.503723 478.727173,658.102783 
	C476.278534,640.813354 472.656250,623.802185 467.697693,607.062134 
	C466.849274,604.197815 465.303436,602.672974 462.289154,602.024719 
	C452.280670,599.871948 442.908875,596.078247 434.331879,590.410034 
	C433.271912,589.709534 432.211365,588.701050 430.652649,589.400391 
	C430.035706,591.023804 430.461700,592.598389 430.849274,594.228455 
	C435.264984,612.799438 439.669434,631.373291 444.010223,649.961914 
	C445.368042,655.776306 443.534393,660.131042 439.508911,661.197327 
	C433.634857,662.753357 430.221649,660.352905 428.527130,653.537048 
	C426.283661,644.513123 424.006500,635.497620 421.622955,625.658691 
M695.196533,769.044006 
	C656.493958,778.634033 617.741211,777.984558 578.553223,768.229736 
	C579.130859,772.577576 579.503174,775.523987 579.916138,778.464722 
	C582.060364,793.732117 584.581238,808.957825 586.268127,824.275391 
	C588.146484,841.332031 594.366943,850.004211 609.228943,854.323914 
	C614.668640,855.905029 620.269653,856.773315 625.887329,857.199402 
	C642.927124,858.491760 659.863708,858.170593 675.970825,851.505066 
	C685.713318,847.473328 691.674072,840.672180 692.904480,829.475281 
	C694.459961,815.319763 697.487671,801.331604 699.336426,787.200134 
	C700.155151,780.941589 702.288940,774.700745 701.332275,767.799622 
	C699.169556,768.201965 697.560364,768.501282 695.196533,769.044006 
M105.272430,631.426758 
	C106.204224,634.442261 107.248878,637.428833 108.032410,640.482361 
	C108.668869,642.962708 110.032379,644.510254 112.413345,645.474060 
	C123.528778,649.973633 134.249878,655.377502 145.249054,660.107971 
	C151.983795,663.004395 155.947647,667.476196 158.486145,674.008240 
	C161.317841,681.294678 164.341629,688.520203 167.621719,695.615051 
	C171.285782,703.540405 176.512421,710.158875 184.779297,714.315857 
	C185.479401,711.656067 184.092804,710.311768 183.144653,708.815430 
	C181.006195,705.440552 178.944977,702.013184 176.702377,698.708862 
	C174.040634,694.786987 174.466400,690.436401 174.861816,686.146606 
	C175.085480,683.720154 177.024750,682.354004 179.294556,682.004272 
	C182.102676,681.571472 184.058563,683.231384 185.409119,685.484802 
	C189.259567,691.909485 192.882309,698.475525 197.364319,704.501160 
	C199.872711,707.873352 202.713562,710.887207 206.632034,712.658081 
	C208.321091,713.421509 210.085785,714.284607 211.680649,712.560669 
	C213.248993,710.865295 211.818771,709.456482 211.001175,708.094299 
	C209.975723,706.385742 208.859360,704.723511 207.676605,703.119141 
	C203.029633,696.815613 198.521194,690.418457 194.611313,683.625854 
	C191.711105,678.587341 192.008789,673.043091 195.180069,670.895996 
	C198.682144,668.524902 202.447144,670.185181 206.509659,675.962036 
	C212.062790,683.858459 217.513229,691.828735 223.177505,699.644226 
	C224.334518,701.240662 225.834076,703.526001 228.494400,701.781555 
	C230.804108,700.267029 231.008850,698.072815 230.145126,695.604004 
	C227.849426,689.042236 224.032028,683.352661 219.430511,678.301758 
	C215.644394,674.145935 213.040436,669.465576 210.816513,664.403748 
	C209.185425,660.691162 209.540115,657.325562 212.618530,654.948425 
	C216.005051,652.333374 219.548615,653.433594 222.605865,656.100281 
	C227.359283,660.246338 230.102203,660.271912 234.662186,655.759705 
	C237.405716,653.044922 240.113480,649.802673 239.210815,645.758484 
	C238.292603,641.644714 234.571609,639.698608 230.651505,639.016846 
	C225.922882,638.194397 221.106323,637.866089 216.322571,637.375122 
	C211.030777,636.831909 205.749344,636.293335 200.936356,633.727783 
	C167.148773,615.717468 134.205978,596.144775 99.896965,579.099915 
	C98.170891,578.242432 96.388992,576.570129 94.398354,578.156189 
	C92.553307,579.626343 93.211281,581.904480 93.551956,583.776489 
	C96.437439,599.632324 100.042809,615.318359 105.272430,631.426758 
M786.096252,679.326172 
	C784.945251,681.540466 785.698425,683.177612 787.690674,684.376099 
	C790.141418,685.850281 792.669617,686.190918 795.249023,684.680786 
	C798.655884,682.686157 800.862000,679.550537 803.150330,676.462891 
	C809.322266,668.135071 816.135925,660.387390 824.593567,654.293701 
	C828.595459,651.410278 834.071838,651.903931 836.310303,655.211060 
	C839.069519,659.287354 837.523804,662.693481 834.317627,665.824890 
	C829.553406,670.477783 824.719482,675.084717 820.298035,680.051941 
	C818.254639,682.347595 814.106384,685.135132 816.517700,688.311462 
	C818.789124,691.303528 822.683899,688.389771 825.559448,687.122498 
	C834.824463,683.039246 842.229065,676.208984 850.012207,669.968018 
	C856.336548,664.896790 863.049133,663.250793 870.944458,666.193054 
	C880.291443,669.676331 889.937805,672.255371 899.713379,674.312622 
	C902.773987,674.956726 905.120239,674.793579 906.536865,671.296448 
	C916.231140,647.364258 924.301514,622.940857 929.396545,597.585571 
	C930.172485,593.724060 929.153992,591.651855 924.785400,591.346313 
	C912.201660,590.466187 900.380493,593.684875 888.633728,597.519958 
	C886.229614,598.304749 884.690491,599.927307 885.587280,602.362305 
	C886.552307,604.982666 885.054993,609.052307 889.915222,609.694702 
	C894.504578,610.301208 899.087341,611.275330 903.532043,612.571289 
	C908.265503,613.951416 910.973206,618.420288 910.062988,622.383728 
	C909.142578,626.390869 905.437256,628.571777 900.194519,627.857239 
	C878.824036,624.944580 857.616455,620.917542 835.982239,619.884644 
	C821.625549,619.199280 807.802795,619.683655 795.168640,627.668823 
	C783.465149,635.065796 771.399719,641.939392 764.808228,655.032593 
	C762.764771,659.091736 761.225159,663.255066 760.399719,667.696716 
	C759.632507,671.825256 762.085510,673.893677 765.465576,675.160278 
	C769.141235,676.537720 770.422180,673.880127 771.828064,671.265930 
	C773.559631,668.045959 775.301697,664.793701 777.420105,661.827393 
	C782.572449,654.612671 788.426758,647.978149 795.859314,643.032898 
	C799.309021,640.737610 803.218750,640.771545 806.530884,643.572815 
	C809.041138,645.695862 808.853943,648.731689 807.771118,651.423523 
	C806.630432,654.259033 803.980347,656.013245 801.758240,658.006348 
	C795.231995,663.859741 789.895020,670.586731 786.096252,679.326172 
M929.382324,419.026245 
	C920.699585,375.468811 903.946411,335.048370 881.957764,295.670624 
	C880.407532,301.661530 882.575439,306.496582 882.313904,311.410034 
	C882.027039,316.798035 881.780090,322.081451 887.982361,324.852173 
	C889.193909,325.393433 890.014099,327.022369 890.794189,328.285858 
	C900.328186,343.727325 901.770081,365.451996 887.870605,382.279022 
	C882.868652,388.334656 877.449707,393.557526 869.163513,394.395264 
	C866.765259,394.637695 866.242859,396.392212 865.834167,398.166809 
	C862.269958,413.644958 859.136902,429.206146 856.534119,445.913513 
	C894.916992,452.255829 922.391785,472.858704 937.968872,508.842407 
	C939.060120,493.523010 937.509644,478.801880 936.274475,464.094849 
	C935.025513,449.223389 932.125549,434.559235 929.382324,419.026245 
M404.397217,432.269257 
	C407.051971,443.234192 409.815552,454.174500 412.303040,465.177277 
	C413.186310,469.084198 415.106415,470.601654 419.148468,470.762970 
	C424.434082,470.973877 429.696594,471.921204 434.953156,472.664215 
	C442.196259,473.688019 442.842346,473.030090 440.954681,465.764038 
	C433.979645,438.915314 428.212463,411.782745 421.821381,384.797363 
	C418.167572,369.369751 421.042633,356.837555 434.494019,347.020020 
	C443.481720,340.460297 451.627808,332.741089 460.918182,326.516632 
	C461.985962,325.801178 463.308075,325.207428 463.366669,323.603271 
	C460.165863,317.478912 454.983948,318.127747 449.585968,319.596497 
	C428.044464,325.457794 411.734650,338.718567 398.921967,356.413910 
	C393.806946,363.478088 392.451965,372.171692 393.675354,380.778839 
	C396.106262,397.881470 400.527740,414.597870 404.397217,432.269257 
M751.341919,810.394348 
	C752.377563,817.102417 753.238831,823.843506 754.500488,830.508789 
	C755.640930,836.533752 756.771606,842.589539 762.399841,846.603577 
	C765.283447,848.660339 767.298279,848.864014 770.266052,846.576599 
	C792.350891,829.554932 812.241943,810.182129 831.258606,789.888123 
	C835.685425,785.163940 840.328125,780.487061 844.056152,774.451355 
	C839.392639,774.876953 835.439941,775.241394 831.486511,775.597900 
	C814.211670,777.156006 796.959351,776.755005 779.746704,774.793335 
	C769.827820,773.662842 760.154358,771.309875 750.609802,768.395691 
	C747.758484,767.525085 744.944702,767.322205 745.582886,771.698730 
	C747.422241,784.312561 749.380127,796.909180 751.341919,810.394348 
M497.351410,678.235168 
	C497.141327,682.119812 497.675049,685.190918 502.780518,685.134705 
	C517.440369,684.973206 532.102417,685.008301 546.763550,684.968079 
	C548.988770,684.961975 551.179932,684.826538 552.343262,682.496521 
	C557.266724,672.636169 566.122559,668.043701 575.924683,664.519836 
	C579.401123,663.270081 583.250854,662.496277 586.776428,658.887695 
	C585.909241,658.489929 585.273010,658.232788 584.669006,657.914490 
	C583.051331,657.062073 581.517456,656.005432 579.827820,655.341736 
	C550.031494,643.637146 521.215759,629.830872 492.912476,614.918335 
	C491.617981,614.236267 490.209808,613.168396 488.735504,614.196106 
	C487.130463,615.315002 488.297211,616.960205 488.371094,618.367981 
	C488.413940,619.184082 488.704956,619.988403 488.895630,620.795288 
	C493.292725,639.401184 496.405975,658.199036 497.351410,678.235168 
M654.377319,730.325867 
	C636.238647,730.518982 618.109375,730.747131 600.146606,727.409973 
	C592.119019,725.918579 584.319580,723.662354 576.494202,721.413330 
	C572.087952,720.147034 570.874329,721.333008 571.749756,725.816895 
	C572.333313,728.806213 572.330688,731.780457 572.335876,734.767212 
	C572.350525,743.285156 575.594421,748.904846 584.360168,751.752625 
	C596.019531,755.540527 607.948425,757.759399 620.002014,758.444946 
	C636.928345,759.407654 653.920959,759.319336 670.797485,756.680603 
	C681.395203,755.023499 691.669861,752.558411 701.092163,747.238892 
	C702.686157,746.338867 704.723938,745.620178 705.159790,743.748108 
	C706.948669,736.064331 708.264099,728.297058 708.572876,719.480774 
	C690.951782,726.352966 673.243408,728.843689 654.377319,730.325867 
M809.499878,731.402405 
	C784.998901,732.152954 761.183899,728.735779 738.475464,719.196472 
	C737.327332,720.766663 737.239563,722.111145 737.446228,723.407043 
	C738.358643,729.131409 739.416870,734.832825 740.300476,740.561340 
	C740.779358,743.666077 742.542480,745.637451 745.212585,747.015564 
	C751.283386,750.148743 757.432068,753.117676 764.131287,754.654846 
	C789.860046,760.558655 815.821045,761.294861 841.857849,757.377686 
	C848.322632,756.405029 855.943420,756.430481 860.641296,751.682922 
	C869.161438,743.072876 875.114075,732.421021 881.198364,720.277344 
	C857.444946,728.561157 834.217163,731.671997 809.499878,731.402405 
M709.206787,683.429016 
	C707.223694,681.666443 705.276062,679.861755 703.247192,678.153503 
	C701.343018,676.550232 699.698853,676.373352 697.693970,678.470764 
	C692.678589,683.717896 686.407959,685.292480 679.428345,683.458862 
	C675.595032,682.451904 673.192322,683.114075 670.886780,686.842590 
	C666.980408,693.159729 656.016418,695.340881 649.379028,691.736328 
	C647.065979,690.480164 644.911011,688.932922 642.753296,687.562622 
	C628.445251,698.255737 614.816162,693.715088 605.170227,682.411316 
	C604.305908,681.398499 603.260376,680.492310 602.603271,679.360107 
	C600.912354,676.446716 598.361084,675.766052 595.349670,676.399475 
	C588.678833,677.802612 582.016174,679.367432 575.898193,682.451111 
	C568.036499,686.413696 567.394836,695.355225 574.434631,700.685364 
	C577.105591,702.707703 580.044373,704.230286 583.200806,705.376770 
	C597.704285,710.644775 612.811218,712.801514 628.094116,713.575500 
	C642.721008,714.316223 657.363892,713.709534 671.867798,711.557190 
	C683.385925,709.847961 694.866943,707.673889 705.020264,701.477051 
	C712.047424,697.188293 713.434753,691.438721 709.206787,683.429016 
M380.452759,565.433044 
	C372.437439,566.175903 365.378418,569.408875 358.960297,574.040771 
	C336.890594,589.968567 323.357635,611.295105 318.619873,638.165405 
	C316.137146,652.246216 323.186584,664.455811 335.678223,667.178101 
	C342.367981,668.635986 348.549011,666.426758 354.412354,663.594788 
	C379.516571,651.469177 402.494995,619.784790 399.680786,586.786987 
	C398.645416,574.646790 392.862305,567.647888 380.452759,565.433044 
M659.477173,638.676636 
	C662.711548,638.495972 664.745544,640.257935 666.351257,642.822205 
	C669.101990,647.214783 671.248108,651.901489 673.330200,656.632629 
	C675.001221,660.429749 676.007629,664.558716 678.614807,667.896362 
	C679.618591,669.181396 680.830444,670.732117 682.723083,670.103516 
	C684.609253,669.476990 685.390259,667.797974 685.623901,665.810242 
	C685.925232,663.246704 685.178711,660.854614 684.621521,658.437378 
	C682.697388,650.091125 679.478210,642.280579 674.785217,635.094421 
	C668.507629,625.481995 659.590149,620.646851 648.174194,621.466553 
	C632.129333,622.618469 617.571838,627.851746 605.896851,639.368896 
	C601.257019,643.945984 600.952026,647.596741 604.133118,653.367065 
	C607.677917,659.797058 611.932678,665.790100 616.825195,671.262695 
	C618.567688,673.211731 620.801941,674.855652 623.089661,676.146240 
	C625.565369,677.542908 628.281494,679.815979 631.254211,677.067200 
	C634.016663,674.512939 632.184937,671.713074 631.153137,669.233154 
	C629.493713,665.244690 627.359192,661.456909 625.548340,657.527649 
	C623.664368,653.439758 624.659668,649.985474 628.422180,647.567871 
	C631.650269,645.493469 635.929077,646.649902 638.531616,650.160400 
	C639.518188,651.491089 640.363892,652.954529 641.085388,654.448486 
	C644.051270,660.589600 646.838196,666.819153 649.901489,672.910339 
	C651.991028,677.065186 655.958374,678.947510 658.782715,677.058044 
	C662.166626,674.794128 663.442444,671.635010 661.441101,667.576843 
	C658.569580,661.754395 655.867126,655.848389 653.106506,649.971497 
	C650.208862,643.802856 651.918579,640.328003 659.477173,638.676636 
M433.347565,825.499878 
	C433.679657,844.810486 433.970734,864.121826 434.358215,883.431335 
	C434.618652,896.408997 435.086731,909.382812 435.296570,922.361023 
	C435.343506,925.265991 436.375214,926.642029 439.251038,926.903503 
	C442.553467,927.203796 445.846619,927.644531 449.127655,928.132690 
	C454.071381,928.868286 456.113342,927.174194 455.504608,922.198059 
	C453.343597,904.532654 452.918549,886.744263 451.846527,869.012634 
	C450.331390,843.950989 449.668701,818.837708 448.651337,793.746094 
	C448.387207,787.232605 443.833923,784.634216 438.098206,787.797791 
	C434.692535,789.676208 433.327423,792.698425 433.341736,796.512512 
	C433.376770,805.841431 433.349640,815.170715 433.347565,825.499878 
M867.252930,682.467896 
	C863.290344,680.772095 860.631592,682.616272 857.579834,685.166077 
	C848.382263,692.850830 838.942261,700.287659 827.132507,703.776245 
	C820.717163,705.671143 814.263367,706.735779 808.542847,702.246765 
	C804.985474,699.455200 801.595032,699.432739 797.444763,700.491821 
	C786.418884,703.305420 779.740784,700.589661 773.824829,691.091309 
	C772.444641,688.875305 770.875549,689.352112 769.138184,689.737366 
	C760.626587,691.624756 753.716309,689.296082 748.533813,682.147034 
	C747.781006,681.108582 747.114319,679.831360 745.556763,679.763000 
	C734.449768,686.889709 734.314880,694.910767 745.224915,702.138672 
	C749.124023,704.721802 753.312866,706.753540 757.832397,708.057739 
	C767.270142,710.781067 776.931519,712.490601 786.655579,713.534729 
	C807.093872,715.729187 827.494141,714.704590 847.783264,711.608276 
	C858.359985,709.994202 868.657104,707.324463 877.790955,701.442078 
	C884.138733,697.353882 884.019714,690.541626 877.737244,686.416260 
	C874.748108,684.453430 871.322388,683.727295 867.252930,682.467896 
M267.763031,618.729004 
	C249.875839,602.432617 228.072678,604.873291 214.050964,619.059021 
	C215.875412,620.539856 217.975952,620.647644 220.135712,620.655884 
	C226.328400,620.679565 232.367630,621.743042 238.265228,623.571960 
	C253.140762,628.184998 260.371185,645.670105 253.272949,659.589233 
	C250.037048,665.934387 244.558319,669.839539 238.322693,673.350830 
	C240.167267,677.012451 241.851700,680.413574 243.593491,683.785095 
	C244.272705,685.099792 245.308472,685.477661 246.890488,685.318359 
	C260.913055,683.906128 276.234833,671.207336 279.733673,657.438782 
	C283.521851,642.531799 278.820923,629.947510 267.763031,618.729004 
M446.179962,417.258514 
	C450.293701,434.368134 455.018158,451.361786 458.297058,468.629944 
	C460.332825,479.351379 467.260101,484.499725 475.738007,488.987000 
	C476.848602,488.456085 476.843353,487.290680 477.055481,486.404114 
	C480.184937,473.324677 483.205261,460.219147 486.341736,447.141418 
	C486.847229,445.033844 485.710388,443.641968 484.806824,442.085052 
	C479.623199,433.152985 474.426605,424.228455 469.239349,415.298553 
	C462.827484,404.260590 462.776062,404.170807 451.563354,410.945190 
	C449.368439,412.271332 445.874054,412.753998 446.179962,417.258514 
M385.634369,487.598785 
	C385.664551,482.851807 387.032715,478.267731 391.026855,475.823822 
	C396.014160,472.772186 395.920929,468.974701 394.396057,464.476135 
	C392.799408,459.765778 393.517273,454.311462 389.435547,449.171295 
	C388.772675,450.359711 388.424896,451.145172 387.933960,451.827606 
	C387.061554,453.040283 386.078369,454.172577 385.183075,455.369537 
	C369.773560,475.971497 361.538696,499.865967 353.710815,523.948730 
	C353.110046,525.797119 353.300262,527.475952 354.161499,529.236023 
	C357.376862,535.807312 360.501709,542.422974 363.641907,549.030884 
	C364.396149,550.617920 365.256409,552.049561 367.350281,551.585388 
	C371.502136,550.664917 375.640259,549.682678 380.043274,548.666138 
	C379.585693,547.449890 379.369141,546.656616 379.004395,545.938599 
	C375.425568,538.893188 374.411652,532.062988 380.595520,525.794678 
	C382.152863,524.216125 381.161591,522.736816 380.421356,521.250793 
	C378.066101,516.523132 377.634186,510.922668 381.328491,507.696350 
	C387.918640,501.941040 388.141541,495.764465 385.634369,487.598785 
M102.841591,394.202515 
	C93.994102,426.184753 88.502357,458.669067 87.932663,492.025513 
	C90.921379,489.850647 93.078056,487.092163 95.809402,485.136200 
	C99.536224,482.467346 100.905136,478.931152 101.644707,474.673981 
	C103.005112,466.843201 104.505768,459.027405 106.261597,451.276398 
	C112.161896,425.230103 118.744781,399.302307 117.871544,372.254669 
	C117.668510,365.966095 117.841560,359.665344 117.841560,353.370209 
	C111.436623,366.490509 106.935257,379.847717 102.841591,394.202515 
M683.894714,599.794128 
	C684.966431,596.276245 682.282959,594.631775 680.235901,592.832214 
	C668.721863,582.710083 654.770630,578.145996 640.037109,575.411072 
	C636.474426,574.749817 634.082581,575.947571 632.358765,579.292175 
	C627.931946,587.881165 624.201599,596.770813 620.570496,605.704346 
	C620.082703,606.904480 619.048950,608.359558 620.332336,610.030090 
	C622.716614,609.378906 625.098877,608.688721 627.501587,608.078613 
	C640.026794,604.898071 652.547241,603.312256 665.352478,606.906433 
	C669.026672,607.937683 672.482300,612.334412 676.274475,609.739014 
	C679.391418,607.605774 681.220947,603.591431 683.894714,599.794128 
M693.393311,634.992554 
	C701.679260,634.826538 707.846924,630.861694 712.139343,624.034973 
	C715.071289,619.372009 713.437195,614.557007 708.657288,611.765991 
	C703.380493,608.684814 698.835327,611.760681 694.645325,613.874756 
	C686.625793,617.921021 685.879333,621.510254 690.132141,629.188477 
	C691.096741,630.929993 691.984314,632.714294 693.393311,634.992554 
M438.730347,389.798920 
	C439.694977,391.786713 439.045471,394.492737 441.640656,396.093719 
	C446.488190,392.293488 452.057587,389.516876 458.046722,385.923615 
	C450.373016,379.436157 443.666931,373.153290 437.315948,364.942963 
	C435.219238,374.007538 436.670197,381.527985 438.730347,389.798920 
z"/>
<path fill="#000000" opacity="1.000000" stroke="none" 
	d="
M732.434143,402.577820 
	C753.987854,409.960175 773.391785,407.354156 790.549805,392.271973 
	C794.362854,388.920258 799.904663,388.684906 802.709351,391.709351 
	C805.511780,394.731384 804.973022,400.190125 801.034119,403.793701 
	C789.097778,414.713898 775.025330,421.085876 758.859924,422.262573 
	C745.487366,423.236023 732.666016,420.696014 720.685120,414.569763 
	C716.552856,412.456818 712.988831,409.624603 713.648682,404.173981 
	C714.032715,401.001709 715.171082,399.165131 719.162415,399.571747 
	C723.635498,400.027466 728.123108,399.837738 732.434143,402.577820 
z"/>
<path fill="#000000" opacity="1.000000" stroke="none" 
	d="
M712.654968,362.896301 
	C712.358887,351.597900 718.606689,343.980316 725.791992,337.154266 
	C728.775757,334.319733 733.196655,334.661102 736.333923,337.490784 
	C739.448181,340.299713 739.153259,344.230377 737.119751,347.565643 
	C735.140869,350.811279 732.275024,353.508911 730.221069,356.717590 
	C726.658020,362.283661 727.838623,366.533386 733.828918,369.312164 
	C742.289734,373.236847 751.018616,372.343079 759.644409,369.810760 
	C765.911499,367.970886 769.764709,368.614624 771.049133,372.117798 
	C772.419983,375.856750 770.119751,380.662964 764.901855,382.798370 
	C749.523865,389.091644 734.565063,387.510925 720.639343,378.682617 
	C715.365662,375.339325 712.702332,369.824188 712.654968,362.896301 
z"/>
<path fill="#000000" opacity="1.000000" stroke="none" 
	d="
M782.224243,280.713776 
	C795.986145,278.560486 809.110718,278.847198 821.598511,284.746979 
	C823.514404,285.652161 825.351868,286.963593 826.849976,288.462494 
	C829.921021,291.535004 830.268860,296.251617 827.754700,299.366089 
	C825.071045,302.690643 821.603882,303.210083 817.929749,301.242767 
	C810.045776,297.021118 801.604065,295.855621 792.829407,296.349670 
	C791.015442,296.451843 789.194031,296.644135 787.407471,296.968109 
	C781.368469,298.063293 777.655640,296.613464 776.080261,292.443726 
	C774.348206,287.859314 776.422363,283.651154 782.224243,280.713776 
z"/>
<path fill="#000000" opacity="1.000000" stroke="none" 
	d="
M805.234131,338.634399 
	C796.533813,342.015533 788.818665,339.247559 786.110046,332.102356 
	C783.364990,324.860779 787.120667,316.799194 794.403015,314.301453 
	C800.947815,312.056671 808.049072,314.803772 811.016235,320.728119 
	C814.203796,327.092834 812.128235,333.837952 805.234131,338.634399 
z"/>
<path fill="#000000" opacity="1.000000" stroke="none" 
	d="
M719.322571,321.154968 
	C721.440369,327.381500 720.144348,332.415741 715.474854,336.394165 
	C711.364441,339.896332 706.717163,340.274353 701.993835,337.700745 
	C696.626526,334.776245 695.166321,329.880554 695.570984,324.148010 
	C695.923035,319.161774 699.162659,315.037842 703.661865,313.900146 
	C710.218811,312.242065 715.359497,314.511505 719.322571,321.154968 
z"/>
<path fill="#000000" opacity="1.000000" stroke="none" 
	d="
M514.250671,195.687744 
	C523.547424,195.677597 532.380493,195.488983 541.201050,195.739090 
	C549.553528,195.975922 553.579468,199.546539 553.329651,205.815079 
	C553.141968,210.524643 550.569275,212.984894 545.846252,213.377792 
	C541.791077,213.715118 537.840637,212.879074 533.968811,212.177170 
	C525.690063,210.676407 517.777466,212.352600 509.778168,213.837952 
	C507.993408,214.169357 506.155670,214.263947 504.336700,214.352402 
	C500.541473,214.536957 497.849609,212.933304 496.834412,209.170456 
	C495.573639,204.497360 497.259979,200.466125 501.205139,198.600250 
	C505.173248,196.723526 509.526611,196.398819 514.250671,195.687744 
z"/>
<path fill="#000000" opacity="1.000000" stroke="none" 
	d="
M510.488098,246.471588 
	C506.372772,241.100388 506.228333,235.766312 509.511261,230.436859 
	C511.962769,226.457138 518.580994,223.980774 523.096069,225.016449 
	C529.357117,226.452621 532.806763,230.211365 533.728577,236.601715 
	C535.028015,245.609863 525.176208,252.855057 515.873840,249.717117 
	C513.975769,249.076859 512.178955,248.227798 510.488098,246.471588 
z"/>
<path fill="#000000" opacity="1.000000" stroke="none" 
	d="
M444.046265,245.892426 
	C438.320160,250.818222 431.241577,250.667114 427.412781,245.872299 
	C423.180389,240.572021 423.909912,233.766266 429.118561,229.449112 
	C432.951447,226.272278 436.983002,226.175766 441.121063,228.659821 
	C444.792389,230.863663 447.073242,236.489105 446.072174,240.929260 
	C445.711914,242.527252 444.889771,244.021103 444.046265,245.892426 
z"/>
<path fill="#000000" opacity="1.000000" stroke="none" 
	d="
M212.893570,395.839325 
	C210.485565,391.358093 210.314667,387.117981 214.559219,384.500244 
	C218.423843,382.116730 222.103745,383.469177 225.872879,386.415344 
	C240.830460,398.107117 257.040344,404.896393 276.267822,397.185089 
	C281.552521,395.065643 285.044861,396.053833 286.944611,399.898743 
	C288.961884,403.981384 287.400269,408.653381 282.625732,411.260803 
	C275.631317,415.080566 268.051331,416.973389 260.052155,416.324860 
	C244.324966,415.049835 229.687820,410.673859 217.279877,400.432983 
	C215.751617,399.171631 214.490768,397.586273 212.893570,395.839325 
z"/>
<path fill="#000000" opacity="1.000000" stroke="none" 
	d="
M250.780945,376.660583 
	C250.445663,372.139191 252.524521,370.467773 256.447510,370.608398 
	C259.610413,370.721771 262.766632,370.769623 265.773315,369.469299 
	C271.072662,367.177460 273.054443,362.342010 270.429535,357.221405 
	C269.154022,354.733215 267.353027,352.492737 265.634155,350.260040 
	C264.200226,348.397400 262.903320,346.510071 262.147339,344.257874 
	C260.989136,340.807434 262.097870,338.029053 264.653809,335.738892 
	C267.250763,333.411987 270.115265,333.704285 272.998993,335.207397 
	C284.503204,341.203766 291.039001,360.557220 285.499542,372.206970 
	C280.486694,382.749237 268.308990,387.872711 257.332458,384.031158 
	C253.972229,382.855133 251.626053,380.680481 250.780945,376.660583 
z"/>
<path fill="#000000" opacity="1.000000" stroke="none" 
	d="
M213.651154,314.496033 
	C220.789078,310.549408 226.915298,310.856049 231.479279,315.146881 
	C235.381683,318.815735 236.541641,325.560425 234.179993,330.850159 
	C231.354019,337.179932 224.872284,339.974609 217.983231,337.833557 
	C211.898117,335.942413 207.873322,329.298828 209.133041,322.989288 
	C209.754166,319.878204 210.738571,316.867859 213.651154,314.496033 
z"/>
<path fill="#000000" opacity="1.000000" stroke="none" 
	d="
M299.678101,334.965515 
	C292.431091,339.328278 283.733276,335.400787 281.825867,328.786621 
	C279.468231,320.611267 283.138580,313.199371 290.544769,311.508148 
	C295.300598,310.422150 300.520721,312.208527 302.842834,316.025391 
	C305.923187,321.088562 306.394989,326.346283 303.054657,331.517487 
	C302.261963,332.744659 301.037537,333.692932 299.678101,334.965515 
z"/>
<path fill="#000000" opacity="1.000000" stroke="none" 
	d="
M376.966187,625.871338 
	C372.073456,633.964233 366.106750,640.601929 358.861572,646.105896 
	C355.927185,648.335083 352.819702,650.223877 349.350067,651.486938 
	C339.983826,654.896484 333.904266,650.722473 333.635498,640.829712 
	C333.566040,638.273560 334.083679,635.842529 334.743195,633.469910 
	C339.773254,615.373657 348.888824,599.832397 363.685364,587.937378 
	C366.952820,585.310669 370.583862,583.291931 374.655426,582.166199 
	C381.936096,580.153076 386.062073,582.998413 387.419464,590.448792 
	C388.995972,599.101990 386.206665,606.888794 383.005829,614.566833 
	C381.415344,618.382080 379.133698,621.909241 376.966187,625.871338 
z"/>
</svg>
