<svg version="1.1" id="Layer_1" xmlns="http://www.w3.org/2000/svg" xmlns:xlink="http://www.w3.org/1999/xlink" x="0px" y="0px" width="100%" viewBox="0 0 1024 1024" enable-background="new 0 0 1024 1024" xml:space="preserve"> <path fill="#371087" opacity="1.000000" stroke="none" d=" M78.866852,664.952026 C71.910866,643.025208 64.935860,621.510254 60.208141,599.367126 C57.427475,586.343384 56.724274,573.060974 55.603611,559.826050 C54.011520,541.023621 54.413506,522.188049 54.759048,503.384583 C55.634995,455.718231 62.920464,409.024536 79.336342,364.153656 C92.521172,328.114471 108.276093,293.080414 130.009827,261.312195 C146.272202,237.541443 164.531158,215.191025 184.872681,194.634964 C197.879517,181.490936 210.272217,167.693817 225.091110,156.506577 C251.709335,136.411697 279.191742,117.589256 309.230194,102.895660 C347.415039,84.217163 387.481049,71.370911 429.511627,64.547539 C460.458496,59.523540 491.538910,56.764278 522.871765,57.716873 C605.945312,60.242519 683.849731,80.788063 754.908020,124.899254 C798.359009,151.872528 835.972961,185.418732 867.896729,225.346848 C877.357788,237.180206 886.799744,249.036087 895.943909,261.113678 C906.858459,275.529663 914.902527,291.625275 922.402466,308.000061 C931.138000,327.072479 939.937439,346.152649 947.005859,365.893616 C955.694885,390.160980 961.535522,415.221161 965.483032,440.724640 C969.329651,465.576385 971.239624,490.528717 971.431458,515.689392 C971.817993,566.390076 963.609741,615.552673 947.070190,663.467041 C931.597107,708.291565 909.403564,749.416748 880.042236,786.567932 C869.422180,800.005554 857.331726,812.269958 846.268433,825.370544 C813.588501,864.068176 772.650024,892.029175 728.843323,916.326294 C694.366577,935.448608 657.379944,947.478638 619.178406,956.714233 C598.395508,961.738708 577.435303,964.990051 556.311890,967.003723 C531.462158,969.372559 506.486816,969.371277 481.516449,967.555664 C451.103760,965.344238 421.085907,960.678223 391.554138,953.283447 C359.378601,945.226685 327.968140,934.806763 298.207550,919.889160 C285.784241,913.661987 274.894165,905.100769 263.458405,897.342163 C240.126373,881.512695 217.433762,864.926147 197.092926,845.305481 C144.139328,794.226868 102.833878,735.506775 78.866852,664.952026 M706.455322,186.714706 C713.371155,184.184128 720.499878,182.871277 727.856750,182.297607 C755.273621,180.159668 781.792480,182.860657 806.030823,197.057526 C820.801514,205.709045 834.559082,215.760330 842.914917,231.306641 C853.084229,250.226898 855.687317,270.582031 853.750793,291.769409 C853.413269,295.462280 851.248413,299.312347 853.297485,302.949249 C857.069580,309.644409 857.780518,317.285736 860.327271,324.353363 C861.751648,328.306152 861.778809,332.484802 860.747009,336.649811 C856.584229,353.452698 847.698853,366.006683 830.208435,370.926758 C828.479126,371.413239 826.701782,371.691772 826.360474,374.146667 C824.458496,387.824493 822.725281,401.494690 823.278442,415.369263 C823.413025,418.745392 824.829407,420.102539 827.908142,420.645905 C833.138489,421.569000 838.352539,422.605774 843.539917,423.747345 C872.036072,430.018036 896.040039,443.716766 913.746643,467.254425 C923.803223,480.622833 931.203430,495.592682 937.986511,510.837585 C943.193420,522.540527 947.354492,534.645813 951.031250,546.411743 C956.803528,483.938751 948.057251,422.962219 926.142700,364.038116 C904.138489,304.872681 870.089294,253.130692 826.330688,207.742096 C782.557495,162.338348 731.915344,126.695671 672.564087,105.104744 C504.222290,43.864990 333.125000,82.960022 218.634384,187.516586 C238.991364,180.178909 259.430878,185.316238 279.308960,188.351135 C302.901398,191.953125 318.911072,208.200668 331.140625,228.136810 C345.011292,250.748322 350.129639,275.971832 352.084351,301.791046 C353.769318,324.047211 351.898193,346.295685 347.520905,368.285706 C344.476501,383.579926 341.596252,398.945435 340.457092,414.511566 C339.072693,433.428925 338.207611,452.388123 338.069977,471.365784 C338.009552,479.697906 338.164093,488.031464 338.134674,496.364075 C338.121918,499.979828 339.062531,503.468170 342.620575,504.471069 C345.964447,505.413605 346.603088,501.573303 347.920715,499.481354 C355.910309,486.796295 363.569366,473.898621 371.748199,461.338501 C378.602295,450.812653 384.878723,439.687805 395.987335,432.868011 C393.986786,422.579865 391.908936,412.516205 390.098602,402.404633 C388.376678,392.786957 386.214661,383.113708 390.404724,373.532349 C396.739929,359.045898 408.150482,348.386780 418.520416,337.058075 C423.084534,332.071960 424.010254,332.433289 419.975830,326.576569 C406.563812,307.106415 402.396912,285.599884 405.739380,262.450500 C406.086243,260.048096 405.825043,258.045532 404.957733,255.769348 C400.389740,243.781052 399.517761,231.880310 408.485504,221.446396 C411.574554,217.852295 412.883240,214.423859 412.754303,209.827911 C412.599152,204.295227 411.841644,199.184433 413.915649,193.121231 C416.566925,185.370636 415.619873,175.843063 414.277710,167.390259 C411.760223,151.535446 420.870483,133.898468 433.239197,127.697571 C447.703766,120.445908 462.771149,115.841217 478.942444,114.562309 C495.575317,113.246887 512.164490,113.346275 528.796875,114.477440 C533.360840,114.787834 537.670349,115.641006 541.913513,117.153603 C564.454468,125.189034 583.059387,139.498428 598.532471,156.947220 C612.006104,172.141312 618.839661,190.728149 613.577820,211.996002 C610.869446,222.943192 608.843140,234.072388 606.897217,245.187378 C606.262512,248.812775 604.284729,252.460602 606.155151,256.363220 C615.152283,275.135010 607.101868,298.204895 594.782837,311.197327 C591.879761,314.259003 588.318420,316.721405 584.213684,317.592438 C579.365540,318.621155 578.459595,321.778351 578.344727,325.863770 C578.166809,332.193481 577.323730,338.472260 575.831970,344.595642 C574.889893,348.462891 575.932678,350.768036 579.081543,353.037140 C584.754089,357.124756 589.051758,362.740601 590.965210,369.317963 C592.445251,374.405090 594.985596,377.034729 599.696899,378.965332 C630.313904,391.511749 654.313354,411.224609 667.560791,442.435822 C668.614258,444.917938 669.103271,447.802643 671.294800,450.044617 C679.338806,443.743561 688.250122,439.690582 697.558289,436.394562 C699.487183,435.711548 701.656494,434.725433 699.807190,432.112579 C697.044983,428.210144 695.014404,423.850983 690.970703,420.779907 C685.397644,416.547302 680.512573,411.449860 676.089294,406.016144 C658.710876,384.667999 650.410278,360.536987 653.426208,332.774597 C653.886597,328.536469 656.346558,324.208954 653.490234,319.679108 C647.365112,309.965454 646.947876,299.442078 651.147339,289.070007 C653.094543,284.260803 654.537598,279.608215 655.294006,274.463348 C657.875122,256.907745 664.669006,240.867447 674.254944,226.017151 C676.075195,223.197205 676.468994,221.096954 673.293152,219.449326 C681.903259,201.145859 689.900757,193.177444 706.455322,186.714706 M866.152466,594.870422 C866.035278,586.725525 862.718262,579.438110 860.374207,571.825928 C856.122559,558.019226 852.721985,543.949280 849.030884,529.972168 C848.344055,527.371277 848.315735,524.631897 848.973022,522.043152 C849.769470,518.906128 852.134094,517.571289 855.314148,517.409485 C857.722656,517.286926 859.204163,518.311951 859.573975,520.634399 C860.837830,528.572205 864.607849,535.730164 866.520386,543.488892 C869.222717,554.451904 872.464417,565.283020 875.550842,576.149170 C876.198059,578.427979 876.942322,580.489563 880.336731,579.628540 C900.014221,574.637268 919.779907,570.179626 940.326965,571.605347 C944.399536,571.887939 945.298096,570.076416 943.853027,566.370728 C941.620178,560.644531 939.375977,554.897705 937.619385,549.015442 C932.267273,531.092896 925.062988,514.082581 915.749146,497.771088 C902.343445,474.293518 885.288330,454.972168 860.354248,443.450562 C849.118713,438.258820 837.328430,435.325012 825.016785,434.076813 C822.032166,444.536804 816.535400,453.080261 809.829956,460.747620 C790.899353,482.393555 767.907532,493.706329 738.880798,485.162292 C725.004822,481.077911 711.546997,475.087799 704.999695,460.324799 C703.454407,456.840363 702.555847,453.216309 702.290955,449.242981 C694.742981,451.722321 688.246094,455.274170 682.213501,459.803955 C665.945496,472.019409 655.749878,488.610107 648.083435,507.004913 C639.694946,527.132385 634.712891,548.486389 626.074280,568.533752 C625.440430,570.004578 625.393066,571.766357 625.266052,573.407776 C625.099487,575.560120 625.966675,576.950195 628.385803,576.906311 C639.851990,576.698608 649.591064,581.893555 659.438110,586.791870 C660.948120,587.543030 662.221619,589.277832 664.162659,588.493591 C666.498779,578.743652 666.509827,568.894348 667.515442,559.166382 C668.641113,548.277466 671.205139,537.547852 670.959167,526.489014 C670.890381,523.397583 672.073486,520.292114 673.844177,517.560669 C675.473816,515.046814 677.249756,513.017212 680.712036,513.922607 C684.356567,514.875671 684.403687,517.626587 684.366516,520.602234 C684.123657,540.086243 679.440796,559.136658 678.775818,578.584229 C678.377930,590.219299 677.581787,601.843445 679.335632,613.440796 C679.801758,616.523071 681.520264,618.672791 684.259277,619.859619 C687.004211,621.048950 688.079041,618.390015 689.462952,616.977173 C693.373901,612.984436 698.021179,610.042480 702.875122,607.483276 C710.617920,603.401123 717.037842,605.299255 721.644775,612.653748 C727.440552,621.906067 726.706360,629.585510 719.335022,637.629150 C713.493896,644.003174 706.509155,649.281128 701.411011,656.364807 C699.214600,659.416565 699.935364,662.083801 703.484558,663.233887 C705.718018,663.957581 708.751831,664.532532 710.284729,663.232666 C714.717834,659.473450 719.733459,660.760498 724.536194,660.759644 C728.570007,660.758911 731.108887,659.611084 732.413086,655.565613 C734.045349,650.502563 737.209656,646.062195 741.702454,643.497986 C753.239990,636.913208 764.665161,629.954407 777.748901,626.604858 C790.052063,623.455078 802.593628,625.051880 815.035522,624.663147 C827.850708,624.262878 840.521973,623.074951 852.860779,619.175415 C858.487244,617.397278 863.919189,614.729675 870.254028,614.780823 C870.117981,608.033691 868.043945,601.901001 866.152466,594.870422 M720.592712,431.098602 C725.300964,432.133148 729.961243,433.270020 734.842407,431.769836 C737.036194,431.095551 739.432922,430.674133 741.709717,430.773834 C745.035339,430.919464 748.667480,431.334564 749.254944,435.688141 C749.842896,440.045654 747.011414,442.180115 743.336548,443.039551 C740.125610,443.790558 736.846619,444.301575 733.479004,444.428741 C727.863770,444.640869 722.369690,443.645020 716.446899,442.642242 C716.338989,453.358673 720.461426,461.263550 728.723999,466.435638 C740.597839,473.868286 753.715942,476.885071 767.444092,473.037750 C789.446777,466.871460 802.952148,451.142548 812.376221,431.244598 C812.705872,430.548584 813.011353,429.147919 812.734558,428.962769 C809.105591,426.535065 810.968628,422.893707 810.712280,419.833649 C809.105164,400.646942 812.858154,381.716858 813.619934,362.639313 C813.848816,356.907104 815.786316,355.024872 820.975098,357.264771 C825.343750,359.150726 828.677795,357.856689 832.243042,355.925354 C838.100464,352.752289 841.676392,347.519257 844.362671,341.728424 C847.665710,334.608093 849.051025,327.091949 846.403992,319.422821 C843.873169,312.090240 838.780701,310.211090 832.030762,313.874207 C829.986755,314.983459 828.002563,316.240692 826.129150,317.618073 C822.566895,320.237183 820.102844,319.247345 817.991882,315.664551 C817.006775,313.992523 816.745117,312.333099 816.630371,310.467712 C815.916931,298.868500 815.554504,287.255829 813.806213,275.718842 C811.917236,263.253204 808.546692,251.040268 807.567993,238.429489 C807.435242,236.719177 806.629333,235.858902 804.898071,235.363358 C794.805115,232.474396 784.489685,230.672928 774.108093,229.427002 C753.491699,226.952820 732.817627,224.960602 712.199646,222.498749 C695.811035,220.541870 691.365356,222.391312 682.616150,236.532120 C679.253906,241.966492 675.926025,247.490860 674.268311,254.721375 C682.019836,253.421158 689.027283,253.490402 696.122314,254.417618 C701.978760,255.182968 700.438049,259.038391 700.088379,262.158600 C699.714355,265.496277 697.538269,266.677765 693.938660,265.932007 C686.848022,264.463013 679.735962,264.449524 672.821472,267.159637 C670.895935,267.914337 669.028992,268.583130 669.284668,271.194031 C670.659973,272.126312 671.854736,271.296234 673.120483,271.006317 C688.715637,267.433990 700.889893,271.252808 707.956726,282.648468 C714.613647,293.383087 714.190369,304.833191 709.310852,316.117218 C707.339783,320.675354 704.529602,324.878296 702.012268,329.190948 C696.926697,337.903595 700.037170,351.775818 714.077515,352.451355 C720.569641,352.763702 726.052917,349.645081 730.730591,345.488464 C734.162598,342.438721 737.674377,342.080170 741.726990,343.281525 C741.477051,346.913055 740.515625,349.741516 738.756592,352.154205 C732.202454,361.143646 717.240234,365.798767 705.854919,362.390869 C694.141052,358.884552 688.308105,350.976593 687.744263,337.471588 C687.641052,334.999603 686.815247,333.490021 684.395569,333.507446 C678.440002,333.550323 672.562317,333.200745 666.607727,330.228210 C663.890381,348.370483 666.142517,364.896484 674.169800,380.077179 C681.353516,393.662537 690.913391,405.823517 702.536438,415.998291 C708.243774,420.994507 712.272278,428.024475 720.592712,431.098602 M516.495361,950.649048 C525.342773,951.216736 534.110474,949.569397 542.935120,949.690369 C546.136108,949.734192 547.184998,948.236755 547.700867,945.280457 C549.295349,936.142090 548.230896,927.070740 547.788879,917.930542 C546.800049,897.483704 546.811523,876.978638 545.420471,856.565063 C544.673157,845.598083 544.957153,834.627808 544.057129,823.660339 C542.970215,810.416016 541.417603,797.158752 541.712952,783.820312 C541.806763,779.583740 545.216736,775.001953 548.343384,775.017761 C553.468933,775.043640 554.769348,778.251587 554.346130,782.691956 C554.002502,786.298279 556.108154,786.883972 559.023132,786.615234 C562.829712,786.264343 566.637329,785.811646 570.453003,785.703613 C574.120361,785.599731 575.031860,784.236633 574.063904,780.654846 C571.378235,770.716675 569.065979,760.678345 567.403076,750.510132 C566.227295,743.320679 566.436340,735.627258 563.857483,729.003601 C558.784790,715.974854 557.783875,703.609192 564.512268,691.039307 C565.910461,688.427246 564.749695,686.904419 561.983887,686.514282 C560.836182,686.352356 559.656921,686.376038 558.492126,686.378540 C536.521240,686.426086 514.537109,686.813782 492.688599,683.778137 C491.324738,683.588623 489.806000,683.360962 489.248138,684.933411 C488.117615,688.119934 487.693939,691.516174 488.916382,694.690369 C489.518097,696.252686 491.611389,695.748840 493.020477,695.446228 C505.206085,692.829834 517.552429,693.797302 529.850586,693.687256 C532.401794,693.664490 534.827087,694.317627 537.058960,695.435913 C539.091064,696.453979 540.416443,698.122375 540.262939,700.629395 C540.108826,703.147461 538.325867,704.050659 536.293457,704.422302 C532.216187,705.167908 528.112549,705.797180 523.999939,706.316650 C510.876984,707.974060 497.390442,706.859985 484.702118,711.993042 C482.001160,713.085693 479.657410,714.211426 477.572876,716.201782 C463.019897,730.096985 458.836639,747.985474 458.433685,767.077393 C458.054291,785.051392 460.274078,802.935059 461.372253,820.856262 C462.286530,835.775879 463.298645,850.692566 464.523773,865.589478 C465.993256,883.457764 467.739410,901.303284 469.355957,919.159485 C470.074615,927.097778 470.609070,935.057617 471.568634,942.966248 C471.871796,945.464783 471.759766,948.505798 476.124573,948.773987 C489.243561,949.580139 502.335266,950.814697 516.495361,950.649048 M203.979996,475.537323 C211.831238,486.281769 221.598846,494.596283 234.281494,499.087189 C250.824722,504.945160 267.747467,495.779907 272.045685,478.918457 C272.822815,475.869781 272.723175,473.683838 269.573303,472.412170 C267.532288,471.588165 267.166779,470.290039 267.476013,468.094299 C268.447418,461.196320 268.941528,454.231842 269.876282,447.327759 C271.136383,438.020691 271.212128,438.160492 261.869720,436.198822 C257.205017,435.219391 252.160721,434.637207 249.061691,430.279358 C247.544647,428.146088 245.633194,425.719177 247.420746,423.004028 C249.163651,420.356720 251.651703,422.308838 253.798264,422.712708 C255.591446,423.050110 257.339691,423.620605 259.115570,424.056488 C275.117035,427.983978 289.040649,424.632019 300.538025,412.409729 C305.008148,407.657837 308.994141,402.591553 312.394135,397.013885 C320.522095,383.680084 329.222382,370.625916 333.889343,355.540833 C335.444214,350.515015 337.581635,345.477081 337.397583,338.842743 C330.017914,344.463531 322.514252,345.975433 314.501526,345.374481 C311.648651,345.160553 311.384613,347.092957 311.113861,349.222015 C310.029327,357.750732 304.969086,362.936401 297.090027,365.741241 C290.837677,367.966980 284.436707,368.775208 277.965210,367.200378 C274.086853,366.256622 270.230530,364.862854 268.316681,360.801361 C267.579132,359.236206 267.323395,357.564514 268.316833,356.023560 C269.416595,354.317749 271.229706,354.499268 272.835541,354.848419 C274.940430,355.306122 277.002045,356.011719 279.034912,356.742462 C285.409424,359.033997 291.115906,357.420624 295.499847,352.780579 C300.057556,347.956604 300.100830,341.748993 297.518829,335.965576 C295.326843,331.055756 293.856079,326.125244 292.967407,320.819702 C288.895386,296.508728 306.609741,280.476166 330.376740,287.159698 C331.713928,287.535736 333.106262,288.491089 334.712616,287.164398 C333.802521,283.618652 332.232300,281.132050 328.205353,280.004211 C322.578156,278.428101 316.821594,277.669281 311.151581,276.417755 C309.306519,276.010498 306.967438,276.733093 306.723602,273.675385 C306.502075,270.897369 307.182861,268.592346 309.970703,267.631226 C312.281219,266.834686 314.734924,266.453583 317.202301,265.870239 C316.823120,263.586670 315.094879,262.400269 313.664764,261.122498 C302.122803,250.809921 291.286560,239.720795 279.150848,230.056046 C273.258118,225.363129 272.937683,225.305237 266.921478,230.366455 C256.047363,239.514465 247.226868,250.625702 237.533463,260.897186 C235.622589,262.922028 233.300522,265.030334 232.668427,268.581543 C234.044006,268.581543 235.006027,268.539978 235.963531,268.588226 C242.908569,268.938324 249.942123,267.770020 256.789520,269.805634 C260.157501,270.806854 262.044525,272.817078 260.882874,276.470764 C259.709137,280.162384 257.144135,281.676788 253.578384,279.703674 C251.377289,278.485718 249.172348,278.352936 246.849060,278.342041 C242.018188,278.319427 237.122726,278.826447 232.371933,278.208130 C225.925430,277.369080 222.276245,280.295837 218.983078,285.336212 C210.386459,298.493958 203.218857,312.361542 197.243546,326.867401 C192.305283,338.855682 191.304276,339.071625 182.273422,329.814148 C178.562286,326.009888 175.743225,326.162445 172.372955,330.210327 C168.732559,334.582611 167.785477,339.999847 167.762573,345.215424 C167.695007,360.605957 170.487122,376.114410 191.467239,377.014160 C200.150543,377.386566 202.133102,380.009125 202.187317,388.672974 C202.250900,398.834442 203.235046,408.916809 203.995895,419.032745 C204.821686,430.012177 205.213394,441.504089 199.344040,451.151520 C194.694870,458.793365 195.520172,464.638428 200.550247,470.973602 C201.585297,472.277222 202.537964,473.646240 203.979996,475.537323 M527.565186,168.373901 C518.901855,168.907806 510.675507,172.054367 502.079254,172.790573 C494.576080,173.433167 487.183472,173.835876 480.883362,178.757568 C479.454102,179.874161 477.115356,179.871521 475.595245,178.875381 C467.255035,173.409912 457.607666,173.439560 448.290619,172.098526 C438.607483,170.704788 430.743683,175.881180 428.252045,185.154785 C426.332123,192.300537 426.626709,192.914169 434.221985,192.569595 C441.579651,192.235794 448.399597,194.043869 455.114166,196.615234 C458.302490,197.836197 459.935150,200.247040 459.192566,203.698181 C458.449402,207.152145 456.046204,208.464508 452.565186,208.412186 C449.813965,208.370834 447.366364,207.469620 444.851166,206.578598 C439.015686,204.511368 432.995941,203.912109 426.808197,204.294281 C426.322632,206.640457 425.278656,208.606415 426.076935,211.676880 C428.844513,211.676880 431.779480,211.580185 434.706421,211.693085 C449.990265,212.282684 460.437134,222.986252 460.480530,237.900131 C460.509399,247.825439 455.427643,255.638351 450.146332,263.359222 C447.888519,266.659973 445.428040,269.786072 444.228088,273.705872 C441.898041,281.317169 445.696014,287.513000 453.621338,288.536102 C456.236664,288.873718 458.890717,288.727386 461.558563,288.169769 C468.146118,286.792908 473.476257,283.165344 478.607422,279.135468 C481.226288,277.078674 483.854828,276.029541 486.555328,278.787506 C489.245148,281.534515 488.733002,284.477661 486.696106,287.370941 C485.862732,288.554688 485.007111,289.722748 483.836334,291.350098 C486.743561,291.073151 488.966064,291.493561 491.113251,292.429901 C500.471527,296.510834 507.462799,303.111572 512.237061,312.107574 C514.916565,317.156464 515.833008,322.346985 512.010864,327.098999 C508.195099,331.843201 502.981079,332.717102 497.101227,331.558289 C493.057281,330.761322 489.716125,328.185944 485.290924,327.108307 C486.510864,334.880157 483.813171,340.455475 478.023529,344.975220 C472.383575,349.378082 467.088898,354.229095 461.718628,358.969421 C457.815155,362.415009 457.889984,363.512634 461.947357,366.633881 C469.607727,372.526855 478.235229,374.866302 487.746582,373.072937 C491.280457,372.406647 492.575928,374.230713 493.720947,376.856171 C495.108002,380.036591 492.758850,380.934052 490.653229,382.021271 C486.359039,384.238617 481.738739,384.598572 477.040924,384.324829 C473.727448,384.131775 472.474426,385.340118 473.127380,388.761536 C473.938843,393.013428 474.647675,397.268066 476.438477,401.249878 C482.101837,413.842468 489.179596,425.792694 493.549164,438.976471 C493.960236,440.216644 494.636292,441.474243 496.484650,441.394440 C498.938324,439.873932 499.873657,437.051453 501.328857,434.701569 C511.006165,419.074768 524.097778,406.394958 537.267456,393.938660 C558.245117,374.097351 564.593140,348.685150 566.612183,321.384216 C566.912476,317.322906 566.653931,313.220276 566.667603,309.137299 C573.993286,307.708832 579.808533,304.734131 585.934448,299.281677 C596.669556,289.726746 600.650330,274.875336 595.918335,262.033752 C592.960327,254.006485 587.132629,251.876053 579.753174,256.033386 C576.061584,258.113098 573.088684,260.992157 570.255798,264.062042 C568.689758,265.759094 567.322083,267.909302 564.493469,267.180023 C561.580688,266.429016 561.667603,263.657959 561.128784,261.536377 C557.202454,246.077866 554.355896,230.266281 549.279236,215.202866 C544.931335,202.301712 544.201172,189.674591 545.447083,176.441879 C545.803650,172.654648 547.552002,168.765335 546.099487,164.449432 C540.063110,165.786102 534.254333,167.072342 527.565186,168.373901 M493.364838,503.869507 C493.701294,517.347900 492.712891,530.837769 493.987335,544.319458 C494.341064,548.061279 495.955383,549.360657 499.314972,550.186157 C514.816040,553.994812 530.399902,557.360901 546.342590,558.530823 C557.608582,559.357605 568.741150,561.452026 580.059326,561.761719 C583.380920,561.852600 584.979675,560.873413 585.130249,557.396667 C585.626038,545.945679 586.681152,534.530579 587.512329,523.102966 C588.682251,507.017029 590.523254,491.068573 593.571350,475.237518 C594.109619,472.442200 595.891785,470.845703 597.888855,469.432800 C599.594849,468.225861 601.753357,468.238495 603.570801,469.327515 C605.043091,470.209747 604.701721,471.783356 604.663879,473.349854 C604.112488,496.146759 600.122986,518.584656 597.622009,541.175171 C597.351807,543.615967 598.023376,544.450134 600.347717,544.768677 C605.117249,545.422424 609.941833,545.983948 614.575867,547.215332 C618.031677,548.133667 619.540588,546.971436 620.551453,543.970520 C622.569092,537.980530 624.718445,532.034851 626.727173,526.041931 C634.097473,504.052917 641.573120,482.066528 656.559753,463.803711 C659.789612,459.867798 659.426575,456.708557 657.981262,452.503754 C651.630066,434.026428 639.563293,419.798584 624.648010,407.864288 C614.982605,400.130615 603.622131,395.236359 592.560669,390.582214 C590.801270,391.481781 590.422363,392.815887 589.848145,393.994263 C581.445679,411.239624 571.694580,427.715393 561.375549,443.865265 C556.848938,450.949738 556.556580,450.957916 548.406799,449.429657 C546.091003,448.995392 544.472290,447.775421 542.888855,446.292877 C537.295471,441.056122 531.608398,435.913452 526.166016,430.523895 C523.345947,427.731232 521.320679,427.989594 518.712219,430.812805 C515.904236,433.851868 515.476746,438.256989 512.753357,441.065491 C507.580200,446.400391 504.980560,453.003265 502.318451,459.645508 C496.748749,473.542297 496.033661,488.444092 493.364838,503.869507 M121.793114,551.656372 C128.119415,556.228394 131.725769,563.125549 136.150299,569.015198 C138.104340,568.798889 138.719147,567.478577 139.617020,566.546082 C148.988388,556.813354 157.606171,546.450928 165.475327,535.468262 C167.601791,532.500488 170.280258,530.448303 173.931778,532.273010 C177.672668,534.142395 176.400543,537.615601 175.717697,540.671997 C174.681686,545.309143 172.506042,549.480347 169.533218,553.089661 C162.039276,562.188232 157.551102,573.432190 148.260773,581.828308 C154.251495,584.531372 160.113876,585.651855 165.834427,587.026978 C178.047623,589.962769 190.326630,591.466919 202.720551,587.527405 C213.675644,584.045227 222.090118,576.739868 230.821167,569.780579 C241.525955,561.248108 253.502029,556.351440 267.560608,556.469604 C281.040070,556.582947 293.553955,559.615601 305.311768,566.064453 C306.888672,566.929321 308.420441,568.332153 310.300507,566.800964 C312.205109,565.249756 311.053467,563.359497 310.543121,561.724487 C308.613373,555.542053 306.850494,549.295837 303.903809,543.471008 C303.164917,542.010315 302.532379,540.360107 302.404602,538.752991 C302.095886,534.870483 304.205780,531.460876 307.372955,530.310486 C310.939423,529.015137 312.154724,532.767639 313.311218,535.558411 C314.902435,539.398193 317.034271,543.084595 318.090302,547.060852 C320.299408,555.378723 324.636963,559.407776 333.761627,557.508118 C337.396942,556.751282 341.382751,557.651489 345.206879,557.840210 C346.940765,557.925781 348.715454,559.228271 350.424805,557.615845 C350.981476,555.356506 349.915375,553.365051 349.225311,551.371399 C347.048737,545.083435 344.922729,538.766418 342.427338,532.602234 C332.298401,507.581848 316.840424,487.147827 292.075928,474.869965 C285.600922,471.659760 284.968109,472.011902 284.174713,478.886139 C284.003357,480.370636 283.614319,481.829163 283.422089,483.312195 C280.821899,503.371338 267.291656,514.584229 247.212982,514.110535 C218.855392,513.441467 195.032516,493.794617 186.572845,469.172546 C185.755936,466.794952 184.683044,465.835571 181.885635,466.102478 C163.498596,467.856903 147.155991,474.507568 132.380569,485.537018 C121.292290,493.814178 113.974274,505.657867 103.802620,514.794983 C97.590088,520.375671 94.134583,528.277222 88.513954,534.424377 C87.982658,535.005432 87.751190,535.912720 88.620277,537.429626 C99.786911,540.321045 111.671242,543.117065 121.793114,551.656372 M394.217072,734.257629 C388.904022,728.204651 384.619354,721.509094 381.424744,714.101501 C379.645935,709.976807 377.672028,705.936584 375.823395,701.841492 C374.841553,699.666321 373.454132,698.948242 371.044891,699.777771 C337.849915,711.207764 328.423584,725.684021 327.513092,755.906982 C326.958527,774.316650 329.838165,792.660522 331.196228,811.031189 C332.419586,827.579651 333.843231,844.117493 335.479767,860.630188 C337.246155,878.453064 339.477142,896.230103 341.222626,914.054749 C341.547119,917.368469 342.570465,919.021973 345.716919,920.190735 C361.319427,925.986206 377.092438,931.254211 393.251068,935.220642 C399.745483,936.814880 406.204712,939.032043 413.427277,939.176025 C414.409515,926.826233 412.972382,914.892090 412.348450,903.005127 C411.128815,879.769470 408.943054,856.590271 408.586548,833.297363 C408.441803,823.840149 407.517914,814.396301 407.017181,804.942749 C406.524750,795.646606 406.079865,786.347534 405.696442,777.046326 C405.555389,773.625366 407.638794,771.256104 410.450775,770.049377 C413.109436,768.908447 415.641266,769.625000 416.928955,772.799500 C417.461670,774.112854 418.817780,774.536621 420.248749,774.638123 C424.727966,774.956116 429.197205,775.510071 433.680573,775.655823 C446.623810,776.076660 446.625793,776.015808 446.648865,762.721619 C446.662476,754.883240 446.250458,754.507080 438.066406,754.254150 C420.940369,753.724976 406.374268,747.461731 394.217072,734.257629 M265.501770,717.650024 C270.831787,717.654724 276.167633,717.500916 281.490692,717.696106 C293.628021,718.141235 304.184723,714.165039 314.201935,707.476624 C330.295593,696.730957 340.991669,666.685486 334.950470,651.773438 C331.566650,643.420898 329.721466,642.020447 321.834717,646.391968 C307.344818,654.423706 292.055084,660.470581 276.215973,665.125732 C272.514343,666.213684 270.346649,667.796143 268.924377,671.546509 C264.651886,682.812561 253.299423,689.328125 241.471146,690.663940 C231.071472,691.838257 220.770294,689.108093 210.458191,691.264771 C207.906769,691.798401 205.816757,691.932190 204.310959,694.482788 C202.587860,697.401550 199.490204,699.425049 196.304932,698.031860 C193.442490,696.779846 191.839432,697.788208 189.651627,698.976624 C181.426682,703.444824 173.850266,700.695007 170.262787,691.884277 C168.762131,688.198547 167.847610,684.278748 166.494629,680.527344 C164.446686,674.849060 163.199341,668.638672 157.128052,665.260071 C157.128052,665.687073 157.071121,666.003235 157.136276,666.291748 C159.308090,675.907349 164.692871,684.348572 167.126328,693.902710 C168.618073,699.759460 169.753540,705.564270 169.317551,711.611450 C168.875320,717.745361 165.644333,720.635986 159.526840,720.313416 C151.336121,719.881531 146.009186,715.263062 143.839554,707.807312 C140.317398,695.703613 134.785660,684.209229 132.934464,671.597473 C132.381516,667.830322 131.487686,664.100586 130.538986,660.407898 C129.619247,656.827942 127.589020,654.402405 123.647591,653.483948 C117.003548,651.935669 110.705750,649.405823 104.598083,646.265259 C100.559639,644.188782 96.078346,642.973633 90.787186,640.996033 C106.052795,693.945862 132.785553,739.756714 164.836868,783.180420 C172.669708,779.151672 180.863220,775.832947 187.486008,769.269165 C201.079269,755.797180 215.134781,742.786926 229.149994,729.747803 C234.754532,724.533630 240.564285,719.198242 248.561966,718.155823 C253.808502,717.471985 259.184723,717.783020 265.501770,717.650024 M575.789978,629.551208 C580.990967,630.628113 586.276245,631.412354 591.365112,632.878418 C595.148560,633.968262 596.937988,633.045410 597.888855,629.290222 C599.494141,622.950684 602.737061,617.276550 605.615417,611.462585 C607.828247,606.993042 610.241577,602.610352 611.473572,597.716614 C612.197815,594.839661 612.279114,592.216064 609.960205,589.848328 C607.374756,587.208374 607.132629,583.946289 608.211182,580.540161 C609.565186,576.264038 611.154907,572.049194 612.241821,567.707520 C612.764343,565.620117 613.988953,562.858337 611.872009,561.221191 C609.919556,559.711304 607.288513,559.987610 604.550110,561.112732 C605.416809,562.899231 606.246399,564.320679 606.815674,565.839661 C608.228027,569.608337 606.249329,574.576477 602.592651,574.372253 C597.029114,574.061646 591.758362,574.356262 586.499329,576.005005 C586.369263,576.045715 586.188477,575.884338 586.026428,575.869080 C573.631470,574.695068 561.246521,573.397400 548.838013,572.388611 C531.871826,571.009399 515.269409,568.015564 499.228882,562.175171 C492.748383,559.815613 486.361206,557.105408 479.909851,556.310303 C476.683929,541.787292 474.450714,527.052063 466.187500,514.400024 C461.127899,506.653107 453.953857,501.813507 444.089355,502.197937 C441.785065,502.287750 439.439270,501.960968 437.147339,501.603088 C429.559143,500.418335 421.931610,500.006165 414.275269,500.431610 C408.116913,500.773743 406.033966,502.836273 405.415375,508.993103 C409.128998,509.854095 413.161499,510.785400 416.414001,508.598816 C419.887726,506.263550 423.387299,506.158722 426.883911,507.017334 C435.432098,509.116425 443.917480,511.511261 452.330017,514.105408 C456.280914,515.323730 459.875031,517.486450 463.038605,520.484375 C461.131775,523.259216 458.828979,524.774597 455.477478,524.345642 C448.236816,523.419128 440.951721,522.763672 433.759705,521.552612 C425.367554,520.139709 417.012207,519.228271 408.646973,521.252991 C406.986786,521.654846 404.041321,521.730774 404.575256,524.595337 C405.043518,527.107666 407.479858,527.509094 409.736084,527.609985 C424.764465,528.281860 438.569305,533.755737 452.539185,538.557373 C454.091461,539.090881 455.564240,539.952637 456.947540,540.855774 C458.618317,541.946472 460.590393,543.251404 459.806610,545.562805 C459.101837,547.641235 456.955902,548.187744 454.873260,548.340088 C450.835693,548.635376 446.984619,547.822754 443.081482,546.784363 C433.172516,544.148071 423.344849,540.868286 412.801147,542.091919 C410.027740,542.413757 407.087341,542.745789 409.271454,546.260559 C410.759644,548.655396 413.290588,551.255737 416.323700,551.444275 C425.767487,552.031067 433.581696,557.270569 442.261292,559.990051 C446.771729,561.403259 449.831604,564.711670 450.752777,569.609558 C451.273315,572.376953 451.989990,575.118835 452.326477,577.907410 C453.687164,589.183716 459.909668,596.718262 470.542511,599.937256 C480.722076,603.018921 490.966309,605.849854 500.930542,609.606018 C506.530518,611.717041 512.129761,613.857727 517.828552,615.673889 C536.535095,621.635193 555.923340,624.788879 575.789978,629.551208 M221.691208,754.173523 C206.874619,769.201477 193.639786,785.994141 174.319687,796.230591 C189.499985,795.582886 203.097382,803.763184 218.311172,802.451660 C218.703186,798.599854 218.920639,794.645203 220.566818,790.925232 C221.776215,788.192078 223.296997,786.293274 226.510117,786.765259 C229.971588,787.273621 230.350967,789.872131 230.387726,792.735718 C230.603485,809.550598 230.138153,826.366028 230.890060,843.187378 C231.122742,848.392639 232.644699,851.992859 236.767319,854.965576 C250.540512,864.897095 264.148163,875.059204 277.975891,884.913147 C281.384644,887.342285 284.824341,890.044861 289.584015,891.141357 C290.634735,880.203430 291.742798,869.652039 292.639893,859.082825 C293.778046,845.673218 294.071594,832.153442 295.958374,818.855530 C298.251190,802.696045 297.585114,786.738770 295.572693,770.703186 C293.856812,757.030701 286.520020,747.979248 273.706512,742.836914 C265.776184,739.654358 257.249420,738.682007 249.379349,735.468994 C244.427475,733.447449 240.002777,734.210938 235.825790,737.494812 C230.155151,741.952942 227.420715,748.857117 221.691208,754.173523 M428.532318,632.870178 C426.496735,625.159973 424.512604,617.435486 422.381714,609.751709 C421.960968,608.234497 421.903229,606.108765 419.993622,605.649048 C417.744751,605.107605 417.013794,607.293396 415.881409,608.643921 C406.678253,619.620056 397.868378,631.026062 384.771332,637.838257 C380.840546,639.882751 376.816315,641.747559 372.861389,643.681641 C374.451172,648.512695 376.319885,652.826416 377.273254,657.333801 C380.689392,673.484192 385.799957,689.106812 391.362640,704.604126 C399.200104,726.439026 417.250702,739.669312 439.161316,739.658752 C449.416077,739.653809 449.248871,739.590210 453.025787,729.662476 C457.280365,718.479126 462.900970,708.161926 473.345459,701.374329 C474.674835,700.510437 475.615875,699.448425 475.614563,697.751953 C475.602814,682.587708 475.678497,667.422668 475.538361,652.259644 C475.502625,648.395752 473.311523,647.731445 470.214233,649.797424 C466.755798,652.104248 463.363617,654.514221 459.852722,656.737305 C457.215881,658.406982 454.073425,659.705566 451.691315,656.924438 C449.506989,654.374390 450.371796,651.129211 452.314392,648.618896 C454.176392,646.212708 456.474335,644.143860 459.435394,641.027039 C454.776001,642.907166 452.566559,641.062256 451.153778,638.123535 C449.682404,635.062805 449.186523,631.933411 452.169464,629.019775 C453.733765,631.376648 453.700867,634.747375 457.327057,634.764893 C461.986115,634.787476 460.086334,630.286316 461.657379,628.111389 C465.028687,631.874207 465.109924,633.257507 462.531494,640.188171 C470.712067,639.496155 472.947083,637.368774 472.597382,629.912109 C472.427612,626.291748 471.455597,622.716064 471.101135,619.095276 C470.702515,615.023193 468.744568,613.091614 464.761414,611.541809 C452.898041,606.925720 443.793762,599.417114 441.524597,585.833557 C440.898315,582.084412 439.570129,578.456238 438.647125,574.751831 C437.773102,571.243896 435.083496,571.136292 432.344391,571.421814 C428.945923,571.775940 429.283600,574.531921 429.492798,576.783264 C429.813995,580.240479 430.294189,583.709045 431.054230,587.094849 C435.485107,606.834473 441.656799,626.187134 443.933777,646.405334 C445.214874,657.780518 446.943268,669.105896 448.171997,680.485962 C448.597260,684.424805 446.973816,688.278809 442.691193,688.786560 C438.529449,689.279907 438.373688,685.099243 437.479462,682.186707 C437.382324,681.870239 437.353241,681.532837 437.293427,681.204956 C434.405457,665.374390 431.517578,649.543762 428.532318,632.870178 M940.693970,585.512634 C924.663513,584.689026 908.788879,585.565002 893.233948,589.888062 C886.755310,591.688660 886.804626,591.681274 889.322449,598.116699 C889.967224,599.764832 890.218506,601.566956 890.667847,603.367554 C892.326660,603.903320 893.881287,603.122620 895.498352,602.859802 C900.512451,602.044800 906.336487,604.648743 908.383789,608.627075 C909.137146,610.091064 910.200317,612.077637 908.185730,613.000732 C903.226929,615.272949 899.440735,619.536987 893.759521,620.653687 C880.025757,623.353149 866.991943,628.564270 853.565735,632.398499 C836.472290,637.280029 819.181458,641.212524 801.429749,638.812866 C784.980530,636.589294 771.009521,642.238708 757.288452,649.730835 C753.050964,652.044678 749.188416,655.051697 746.161499,658.900085 C744.592102,660.895447 742.584961,662.915710 743.845459,665.921021 C746.529663,666.369141 747.606384,664.387695 748.913391,663.030090 C756.435974,655.216064 764.701660,648.717712 775.878723,647.101562 C778.539551,646.716797 781.151794,646.533325 783.754883,647.520752 C785.595703,648.218933 786.327026,649.487976 786.247986,651.365112 C786.169373,653.233459 785.283569,654.959229 783.508423,655.065735 C774.433044,655.610535 768.877502,662.358337 762.003418,666.818176 C756.181458,670.595276 753.072327,676.076294 751.274780,682.515198 C750.811096,684.176086 749.250061,686.296570 751.478455,687.408386 C753.989868,688.661438 755.412598,686.464905 756.501038,684.548706 C758.724182,680.634705 760.992676,676.817078 764.166504,673.512634 C772.647400,664.682800 782.925659,658.847839 794.109436,654.153442 C798.255920,652.412903 800.165527,653.567261 802.011902,656.906067 C799.111023,661.759033 794.929993,664.835510 790.104980,666.746277 C781.954712,669.973999 776.539001,676.149597 771.393982,682.768311 C769.986084,684.579590 768.826050,686.449036 770.326233,688.647583 C771.986877,691.081238 774.474792,692.001221 777.313599,691.336243 C779.761536,690.762817 782.027039,689.583313 783.915894,687.908142 C787.651062,684.595459 791.353821,681.240540 794.951599,677.779968 C804.291504,668.796021 814.323608,667.707458 825.306213,674.586121 C827.561890,675.998901 829.766602,677.416809 832.570312,677.671570 C846.810181,678.965576 860.960632,680.271912 875.369446,678.900513 C890.104248,677.498047 904.778809,676.180359 919.134583,672.438477 C921.777527,671.749634 923.798523,670.458191 925.214050,667.786926 C932.140015,654.718262 935.646362,640.487305 939.615234,626.415527 C942.887756,614.813171 944.300903,602.968811 943.676941,590.900085 C943.572998,588.888611 943.832520,586.812683 940.693970,585.512634 M640.204773,828.067932 C628.822021,828.474243 617.627930,827.156921 606.614319,824.306030 C601.154541,822.892822 600.443420,823.346680 600.328613,828.857971 C600.068481,841.347168 601.119019,853.757629 602.104431,866.202148 C603.941589,889.402771 607.123474,912.388733 611.229919,935.278198 C611.757507,938.218689 612.876648,939.063416 615.475159,938.408508 C632.404358,934.141663 649.273804,929.667480 665.741699,923.807373 C668.384155,922.867126 669.857483,921.356201 669.676392,918.293823 C669.075012,908.127686 670.147400,897.999390 670.767090,887.874695 C671.345398,878.426025 672.624451,869.022400 673.341003,859.579651 C674.221436,847.978394 675.391296,836.424133 677.332764,824.945801 C677.740479,822.534851 676.660767,820.836914 673.866699,821.896973 C663.313599,825.900391 652.281860,827.223145 640.204773,828.067932 M208.504776,670.965088 C207.084869,666.330322 205.518875,661.714966 202.538330,657.843262 C200.071960,654.639465 200.498367,652.130188 203.774277,649.547791 C212.486740,653.254150 215.587143,661.135437 218.313507,669.406067 C216.315353,659.772888 214.471085,650.167725 209.915924,641.399048 C208.300705,638.289734 205.668213,636.939758 202.097748,638.106384 C200.626251,636.013428 199.321396,634.111511 196.916580,632.840576 C169.384140,618.289917 141.930649,603.589539 114.499344,588.848633 C112.180847,587.602661 109.886841,586.048584 108.093391,584.153259 C105.742020,581.668213 106.226036,578.629456 107.877991,575.836914 C109.683472,572.784851 112.038628,574.266724 114.438599,575.010193 C117.134445,575.845398 119.078224,578.817200 122.298798,578.145874 C123.228699,575.823364 121.951820,574.304077 121.204300,572.690918 C113.326424,555.690918 97.320786,553.108154 81.443771,550.431519 C77.075211,549.695007 75.341957,551.766357 75.141136,556.369019 C74.143944,579.224487 78.187088,601.352661 84.099831,623.256287 C84.492706,624.711731 84.685890,626.129883 86.414459,626.786499 C101.030785,632.338806 114.672646,640.205017 129.819702,644.564697 C140.502319,647.639282 150.968307,651.485291 161.467072,655.169128 C164.756866,656.323425 167.393005,658.154968 168.984055,661.839539 C172.669144,670.373535 178.042297,678.111694 181.255554,686.906555 C181.716248,688.167480 182.307281,689.587646 183.999619,689.261414 C186.105667,688.855469 185.773148,687.027466 185.528641,685.626892 C185.188538,683.678772 184.798416,681.637695 183.905228,679.907104 C181.369736,674.994690 179.701813,669.771790 177.942032,664.575317 C176.581482,660.557678 177.996994,658.983826 182.189133,659.774048 C187.441223,660.764099 192.010437,666.325500 192.367996,672.548035 C192.625916,677.036682 194.972275,681.125549 194.632690,685.727905 C194.562851,686.674622 195.515900,687.482300 197.040970,686.983704 C197.512756,685.339233 197.695358,683.584229 197.305069,681.751160 C195.457733,673.074768 191.521576,665.166138 188.169113,657.048767 C187.685852,655.878662 186.256607,655.041382 187.510910,653.595886 C188.707291,652.217224 190.205170,652.340759 191.621033,653.018860 C195.569382,654.909851 199.156647,657.142151 201.121475,661.421021 C203.641022,666.907898 205.320267,672.609436 206.329041,678.531372 C206.564713,679.914917 206.725388,681.254028 208.985916,680.860107 C210.315674,677.827637 208.910278,674.783569 208.504776,670.965088 M428.089630,154.732346 C430.784912,158.019272 434.488770,158.742096 438.427429,158.632538 C445.772003,158.428268 453.018250,159.155670 460.226807,160.515533 C469.766144,162.315079 478.752563,165.658035 489.053406,160.971466 C497.937378,156.929520 508.591064,158.119415 518.336792,155.854370 C529.620117,153.231964 541.084717,151.096176 552.589417,149.818207 C560.783813,148.907928 564.568665,155.133484 561.818176,162.916779 C556.233337,178.720886 555.204773,194.515945 561.148865,210.620804 C565.218994,221.648315 568.384827,233.009583 572.038879,244.485260 C577.729919,243.551346 583.232849,242.119446 588.905823,242.632385 C592.422241,242.950348 593.960083,241.193329 594.647095,237.884933 C596.400757,229.439774 598.449097,221.056213 600.253479,212.621063 C603.953247,195.325745 601.131714,179.570190 589.067200,166.032257 C587.185120,163.920349 585.465759,161.663589 583.665527,159.478439 C581.462952,156.804764 579.862244,152.645721 575.215637,156.441574 C574.323303,157.170563 573.000244,156.242599 571.929077,155.784027 C568.631470,154.372284 566.004395,152.246796 563.966919,149.222610 C554.116577,134.601547 539.158081,129.293625 522.673767,127.469162 C509.784119,126.042549 496.801239,126.866096 483.848236,127.259003 C466.651947,127.780617 450.695587,132.056839 436.421509,141.896835 C432.056763,144.905716 428.644287,148.620209 428.089630,154.732346 M98.086617,368.362854 C79.652740,420.619690 72.292229,474.505219 73.494194,530.051636 C74.657585,529.690430 75.187576,529.663818 75.242073,529.489014 C77.315613,522.837219 85.401466,518.814209 83.548668,510.369110 C83.316574,509.311218 84.512772,507.961700 84.983734,506.723175 C85.868111,504.397491 87.068054,502.119720 87.504639,499.707611 C90.346909,484.004120 95.623146,469.159760 103.446808,455.298920 C121.162865,423.912140 131.632004,390.529297 132.713791,354.295074 C133.255127,336.163635 136.407166,318.328033 140.431366,300.645935 C143.117584,288.842957 146.967896,277.381409 150.377884,265.773102 C127.846428,297.102356 111.709824,331.656433 98.086617,368.362854 M716.250916,777.446960 C718.179443,786.026794 720.557251,794.537231 721.895691,803.208130 C722.984741,810.263489 726.716553,814.798645 732.716614,817.689148 C751.733704,826.850952 771.497253,832.771484 792.352234,825.260925 C809.396973,819.122437 826.013245,811.604370 828.350952,789.994385 C828.491760,788.692871 829.116089,787.450378 829.432800,786.160156 C832.110046,775.255981 835.096863,764.412659 836.402588,753.223083 C833.884827,752.114136 831.765625,753.098816 829.739380,753.449219 C823.037048,754.608459 818.521484,760.309021 818.314880,767.040222 C818.015625,776.790222 815.142639,786.008484 812.025635,795.139587 C811.622009,796.322144 810.563049,797.357056 809.616577,798.260132 C808.248962,799.565063 806.640198,800.586914 804.718628,799.282837 C802.871582,798.029236 801.423340,796.695801 802.207092,793.954834 C803.161682,790.616455 803.706787,787.153137 804.305481,783.722351 C805.601990,776.293030 807.829956,768.916687 806.023071,760.518616 C783.488403,764.206421 761.131042,761.182434 738.499878,761.190125 C739.499023,772.327881 742.420532,782.554077 743.977417,793.007019 C744.730103,798.060974 742.647217,803.825195 739.772461,804.212646 C736.459900,804.659180 732.781921,800.804626 732.001770,795.257629 C730.517883,784.706726 727.670471,774.458557 725.507935,764.060486 C723.784302,755.773193 718.739624,751.406799 708.838806,750.144409 C711.298340,759.215149 713.663452,767.937744 716.250916,777.446960 M666.695068,759.533203 C666.697327,758.033264 666.707458,756.533264 666.700562,755.033386 C666.671753,748.808838 666.648804,748.628540 660.346375,749.365906 C643.441650,751.343689 626.568542,752.577637 609.636841,749.529053 C605.385254,748.763550 604.100159,750.571472 605.081177,755.057190 C607.174561,764.628296 608.808472,774.277893 609.949768,784.007263 C610.324341,787.200378 608.637939,789.662903 606.038574,790.907898 C603.509827,792.118958 601.739807,789.915100 600.200867,788.131470 C598.615540,786.294128 598.272461,783.931885 597.684448,781.690063 C594.858826,770.916626 592.931763,759.957520 590.942078,749.010681 C589.692444,742.135071 588.836060,741.610352 581.775452,743.150635 C580.949280,744.810181 581.722351,746.341675 582.090027,747.955933 C584.706604,759.445618 587.776917,770.880432 588.286926,782.720154 C588.831604,795.365356 597.438843,807.095520 609.596558,810.557922 C623.987000,814.656250 638.641296,816.022217 653.507751,813.600586 C671.496948,810.670349 686.617249,804.064270 690.489380,783.722168 C692.691711,772.152405 694.723755,760.547424 696.614807,748.922974 C697.117859,745.830750 692.739197,740.638977 690.104065,740.517029 C684.291931,740.248352 680.173767,743.343079 680.375061,748.297180 C680.907166,761.392334 677.873596,774.078064 676.187866,786.915161 C675.828247,789.654053 674.220398,792.438110 671.342834,792.501038 C668.256836,792.568604 666.402588,789.951538 665.814514,786.936951 C665.500305,785.326416 665.607178,783.612488 665.677979,781.951782 C665.982849,774.801331 666.344788,767.653381 666.695068,759.533203 M255.855469,572.357239 C247.583038,574.919434 240.638184,579.791565 233.947495,585.062561 C217.756622,597.817871 200.218170,606.339050 178.776443,603.397522 C175.037460,602.884521 171.216324,601.843750 166.373474,603.035583 C179.663834,609.968384 192.340897,616.166748 204.447403,623.408936 C207.140213,625.019836 209.438782,624.379517 212.168091,622.559265 C224.700989,614.200562 238.023407,612.622009 251.834366,619.302490 C256.431702,621.526245 260.828796,622.063416 265.761169,620.320435 C282.266571,614.488037 298.250824,607.474976 314.032562,599.932678 C318.408844,597.841187 318.732269,595.674011 315.906128,592.021057 C302.538513,574.742493 280.817139,565.941406 255.855469,572.357239 M588.366211,856.010498 C588.162537,854.025330 587.807678,852.042114 587.781677,850.054626 C587.679321,842.228149 587.741150,834.399414 587.613708,826.573547 C587.561340,823.354492 586.536499,820.647522 582.488770,822.138000 C575.290222,824.788452 567.860657,826.593445 560.446106,828.445740 C557.618835,829.152039 556.884766,830.450134 557.198303,833.384460 C558.098083,841.804382 558.900696,850.257996 559.175232,858.716797 C559.822510,878.663452 561.190796,898.577393 561.513977,918.544250 C561.648254,926.838623 562.309326,935.154114 562.345032,943.473816 C562.355652,945.952881 562.798340,947.827332 565.958801,947.383057 C576.608826,945.886047 587.260864,944.408081 598.075745,942.056885 C592.396790,913.817932 589.978577,885.428955 588.366211,856.010498 M562.230591,640.466675 C537.999390,633.522034 512.875793,629.794128 489.379059,620.173218 C485.980713,618.781677 484.226990,620.098572 485.175598,624.049011 C486.228088,628.432007 486.212646,632.916321 486.418274,637.402771 C486.843475,646.681763 487.724182,655.939087 488.331085,665.210999 C488.478546,667.464172 489.481354,668.501465 491.704651,668.627686 C497.008148,668.928711 502.311157,669.642273 507.607758,669.584351 C522.727356,669.418945 537.849182,669.104309 552.959412,668.552734 C563.912781,668.152832 574.879761,667.586304 585.778992,666.484131 C590.771973,665.979187 596.075928,666.425171 601.327209,663.683411 C599.187195,659.447327 596.865051,655.458618 595.153687,651.223145 C594.206543,648.879089 592.901245,647.880737 590.584106,647.346436 C581.372498,645.222290 572.195984,642.945618 562.230591,640.466675 M807.145081,718.547302 C808.610840,718.251404 810.075195,717.948730 811.542480,717.660767 C821.442078,715.717712 830.854492,712.600464 838.904480,706.238342 C840.311829,705.126099 841.920471,704.197571 841.140808,701.790466 C839.484680,696.677185 826.075439,685.668091 820.936584,686.894958 C812.809937,688.835144 803.476685,687.541077 797.019287,695.039124 C794.697021,697.735596 791.370667,699.736938 788.191467,701.492065 C780.495239,705.740967 772.590942,707.402710 764.730530,701.716736 C762.659790,700.218872 760.627136,700.278687 758.151917,700.869629 C747.973999,703.299866 741.342590,700.174255 739.770569,692.548157 C738.014771,684.030151 738.003418,683.998291 729.863342,686.912842 C725.949402,688.314209 722.054504,689.780945 718.213013,691.368286 C714.973877,692.706726 711.856750,694.366333 709.400208,696.923157 C704.900940,701.605896 705.685669,707.572327 711.520020,710.538269 C719.530457,714.610168 727.791199,718.180481 736.769531,719.637756 C759.998596,723.408020 783.153015,721.790283 807.145081,718.547302 M720.318176,855.521790 C718.370056,870.334839 716.839111,885.174133 716.447021,901.276306 C751.082581,882.811157 782.077026,861.778931 809.838318,836.035095 C808.944275,835.668213 808.333557,835.768127 807.775452,835.996704 C780.871094,847.013123 754.545227,844.867615 728.661011,832.543823 C724.881409,830.744324 722.986755,831.812866 722.407410,836.325378 C721.626404,842.409363 721.023376,848.516296 720.318176,855.521790 M684.284607,703.740601 C693.146301,702.218750 694.596985,693.240295 700.521423,688.579285 C697.724976,684.713440 694.185913,682.773682 690.994934,680.433594 C690.086060,679.767151 689.091553,679.720337 688.221680,680.414917 C682.749451,684.784058 675.789978,684.778442 669.551086,686.892883 C659.331909,690.356140 648.943481,691.569153 638.164978,691.552856 C629.280090,691.539368 622.039246,689.505310 617.619812,681.294861 C615.624512,677.588013 612.494446,676.754333 608.783997,677.483887 C601.260864,678.962952 593.855103,680.855225 587.123657,684.736755 C582.697021,687.289307 578.979797,690.523804 576.976440,695.365112 C574.925659,700.321106 576.427246,702.988098 581.690857,703.894897 C583.820679,704.261841 586.007690,704.440430 588.067505,705.047913 C620.005188,714.466553 651.799561,712.238647 684.284607,703.740601 M453.596405,895.845093 C452.957489,889.909058 452.137665,883.985962 451.714691,878.034546 C450.596008,862.294556 449.658356,846.541626 448.628754,830.795227 C448.298370,825.742310 447.420258,825.423401 439.741943,825.296631 C435.600006,825.228210 434.367371,826.712891 434.230377,830.807251 C433.808228,843.424744 433.216095,856.050964 432.163239,868.629700 C430.264343,891.316589 429.272461,914.044922 428.160858,936.774048 C427.918915,941.721680 430.021515,943.139893 434.229279,943.669006 C439.985931,944.392883 445.715210,945.347839 451.443146,946.283752 C457.139587,947.214417 457.860291,946.630554 457.621887,940.876099 C457.580719,939.882446 457.412506,938.894592 457.323212,937.902222 C456.089905,924.192810 454.860138,910.483032 453.596405,895.845093 M467.193512,437.735382 C460.460236,441.895020 453.726959,446.054657 446.925873,450.256195 C445.030334,447.358215 444.692780,444.778564 444.694214,442.102478 C444.698181,434.608459 444.824097,427.110687 444.617462,419.622253 C444.534454,416.612915 446.302582,412.460083 443.159393,410.836121 C439.593781,408.993866 437.570221,413.461151 434.829620,415.062531 C431.420044,417.054901 430.941284,419.782898 432.443481,423.564301 C435.687042,431.729248 438.576385,439.981567 439.620056,448.872375 C441.196320,462.300476 448.891602,473.688568 453.011963,486.295624 C453.388306,487.447174 454.270081,488.164825 455.402191,488.690033 C463.145386,492.282104 468.678894,498.542145 474.152496,504.749176 C476.085815,506.941467 478.076141,508.063080 480.705383,508.296600 C482.089386,507.247681 482.034698,505.758148 481.991119,504.535034 C481.687134,496.005188 483.674591,487.664825 485.202789,479.474457 C487.724823,465.957703 487.133911,453.715637 480.189697,441.402618 C475.302246,432.736542 476.211487,432.223755 467.193512,437.735382 M358.376740,632.650146 C366.087646,632.278381 372.850403,629.496033 379.180450,625.113647 C389.276581,618.124023 397.650665,609.381409 405.798767,600.321350 C410.323456,595.290283 413.136993,589.611633 413.495880,582.892212 C413.771027,577.740967 413.773895,572.559692 413.577881,567.403931 C413.429779,563.508362 404.801208,553.097839 401.596375,553.823547 C396.590973,554.956909 393.049713,552.311340 388.970978,550.975952 C387.003754,550.331909 385.281616,550.892517 383.673431,551.652039 C376.116791,555.220886 368.853333,559.333984 362.866699,565.256348 C347.345886,580.610596 337.763336,598.607666 338.468140,621.094055 C338.519043,622.717285 339.223633,623.941406 339.986267,625.227539 C344.003937,632.002991 350.840240,632.116821 358.376740,632.650146 M840.968933,719.932983 C833.877258,724.454895 826.146301,727.312561 818.007019,729.402710 C795.950745,735.066956 773.454590,735.309631 751.031616,734.070007 C738.380798,733.370605 725.582642,731.433105 713.945251,725.274414 C710.526672,723.465210 707.043091,721.381104 702.833069,720.844238 C701.423706,726.117004 704.003174,729.747314 707.659363,732.114014 C720.437073,740.384521 733.836548,747.094116 749.401001,748.710693 C769.439758,750.791870 789.250366,748.429138 809.075012,746.342896 C812.276611,746.005920 815.893982,746.602051 818.776794,744.582092 C824.911865,740.283325 831.078735,736.007812 836.959656,731.376221 C841.014099,728.183289 843.089783,723.624146 844.483154,718.016113 C842.952637,718.810791 842.219604,719.191406 840.968933,719.932983 M637.619080,678.134644 C641.249329,674.700012 639.262146,671.089722 637.867920,667.568481 C636.238831,663.453918 633.674377,659.686768 633.008484,655.211609 C634.996765,653.932068 636.570679,651.555725 638.839478,653.800781 C644.459534,659.361877 651.146484,664.367310 650.351318,673.678223 C650.111511,676.485779 651.082520,678.163086 654.280029,677.961548 C657.270996,677.773010 658.802917,676.628906 658.710205,673.335632 C658.569336,668.331848 656.867798,663.937012 654.378418,659.717163 C652.180176,655.990906 650.065552,652.213928 647.987671,648.419006 C647.340759,647.237427 646.946838,645.951782 648.129028,644.742493 C649.117310,643.731567 650.158203,643.944519 651.343079,644.302490 C652.931702,644.782532 654.571106,645.035950 655.810913,646.328491 C661.763672,652.534485 668.760925,658.022217 669.786133,667.518555 C669.894958,668.526611 670.198425,669.877197 671.614868,670.396179 C673.920410,670.402710 674.638428,668.944946 674.747314,666.862610 C674.918030,663.598877 674.165771,660.599792 672.394714,657.840759 C669.069031,652.659851 665.760376,647.467834 662.469299,642.264893 C661.491760,640.719299 660.366760,639.194641 661.895264,637.286926 C663.676636,635.063538 665.442322,636.321045 667.210999,637.196960 C669.606445,638.383057 671.727234,639.958496 673.856201,641.586792 C679.728577,646.078064 682.573303,652.715149 686.348328,659.217773 C688.317627,656.592529 688.847351,654.073914 688.567139,651.405212 C687.558533,641.799622 677.256836,630.393066 667.845215,628.608093 C664.589905,627.990662 661.248962,627.729980 657.933777,627.540039 C638.974670,626.454285 636.262634,624.422302 627.375854,644.068848 C625.965576,647.186768 624.077515,649.125977 620.726807,650.111084 C617.784180,650.976257 615.161865,653.049622 618.056335,656.291870 C622.593262,661.374146 625.409302,667.343628 628.167969,673.411438 C629.874756,677.165527 632.678406,679.080261 637.619080,678.134644 M375.884918,479.293915 C375.448151,480.001373 374.997772,480.700806 374.576721,481.417511 C367.839081,492.885925 360.983612,504.287598 354.427490,515.858887 C351.622131,520.810242 352.512573,522.748535 357.670685,524.474304 C366.487946,527.424438 375.416016,530.038391 384.579163,531.657288 C391.675079,532.910950 392.444122,532.207581 393.097839,524.979065 C393.227753,523.542114 392.897064,522.037170 392.619690,520.594177 C391.057831,512.470093 390.457245,504.440674 394.831329,496.886993 C395.470154,495.783844 395.416321,494.762573 395.222290,493.558777 C393.641998,483.754486 392.173401,473.932251 390.591064,464.128326 C390.261597,462.086761 390.122711,459.801941 387.290344,458.635712 C383.591217,465.343933 379.919891,472.001709 375.884918,479.293915 M579.645569,726.846130 C582.494141,729.513672 585.768372,731.545593 589.561035,732.397644 C596.997559,734.068237 604.296509,736.222412 611.975098,736.979187 C635.712830,739.318604 659.115540,737.652649 682.185547,731.768066 C689.873962,729.806885 689.918823,729.261658 689.642273,721.345520 C689.471436,716.455566 688.537598,715.732483 683.866760,717.258667 C668.864502,722.160583 653.350037,723.848145 637.703735,724.298889 C617.930298,724.868591 598.679321,721.297546 579.706726,716.021790 C578.115723,715.579407 576.565796,714.754578 574.815857,716.339111 C574.673584,720.256348 576.348816,723.517151 579.645569,726.846130 M324.545532,878.937500 C324.300140,877.292969 323.961090,875.656128 323.823792,874.002625 C322.409760,856.974731 321.015808,839.945251 319.645691,822.913757 C319.245728,817.942139 317.603821,816.690002 311.012177,816.526062 C307.017578,816.426758 307.535431,819.656982 307.514435,821.862061 C307.292938,845.128906 304.774689,868.257202 303.036011,891.417542 C302.558533,897.778198 304.642517,900.312866 309.758301,902.395325 C315.180756,904.602600 320.107391,908.014038 326.222717,909.785156 C325.658020,899.329285 325.132568,889.599548 324.545532,878.937500 M857.833496,736.265137 C854.267395,736.318054 852.640442,737.895935 852.190674,741.680115 C849.860107,761.286316 846.627014,780.733337 840.674500,799.631714 C840.357056,800.639587 839.812744,801.864441 841.742493,803.194397 C862.587097,781.591492 879.467041,757.117371 894.178833,730.630798 C882.373535,734.283875 870.547485,735.372742 857.833496,736.265137 M684.252991,899.499390 C684.252991,904.881897 684.252991,910.264404 684.252991,916.632019 C690.376953,913.785400 695.462952,911.439026 700.531006,909.054626 C702.044250,908.342834 702.517517,907.041687 702.649719,905.404785 C703.943359,889.387573 705.412659,873.383789 706.598938,857.358948 C707.622009,843.537354 706.602600,842.729248 692.536804,843.362671 C689.036987,843.520325 687.626099,844.818909 687.256531,848.358826 C685.515686,865.033630 684.427246,881.737915 684.252991,899.499390 M572.409363,369.183258 C561.798767,387.286041 546.309082,401.331024 531.753296,416.964355 C538.436646,423.047150 544.642517,428.695374 551.031189,434.509949 C556.939575,427.999298 561.812317,420.044769 566.614136,412.097137 C572.201233,402.849823 577.711487,393.497620 580.741455,383.002686 C581.959961,378.781891 578.482727,370.259949 574.916321,368.024170 C574.020142,367.462402 573.363647,368.002563 572.409363,369.183258 M860.611328,693.049316 C857.425415,692.862915 856.333984,694.338806 856.249146,697.529358 C856.071777,704.196350 857.099182,710.773438 857.266174,717.394836 C857.360229,721.123047 858.792725,721.798096 862.183167,721.447876 C873.327332,720.296753 884.004578,717.397766 894.530518,713.692322 C906.024963,709.645752 906.941833,707.727173 902.198608,696.172974 C902.009155,695.711609 901.768127,695.268372 901.612915,694.796387 C900.767700,692.227112 899.071960,690.968262 896.328979,691.411987 C884.777161,693.280823 873.066711,691.620667 860.611328,693.049316 M701.372742,299.154755 C701.171692,290.026306 694.931335,282.206635 687.177673,281.377380 C676.999695,280.288849 669.459412,283.557190 663.857666,292.822357 C659.265625,300.417419 660.467102,310.617645 667.525818,316.347290 C674.565979,322.061951 684.936035,323.077209 691.809265,317.569275 C697.354614,313.125458 699.840881,306.761230 701.372742,299.154755 M627.482300,621.915588 C635.890076,615.473816 645.162659,613.128906 655.673584,615.372864 C657.697998,615.805115 661.057251,617.761780 662.234680,614.368042 C663.234131,611.487488 663.377197,608.207947 660.583801,605.591858 C652.452698,597.976624 642.991394,593.147278 631.972412,591.405518 C628.552795,590.865051 626.338379,591.689148 625.640442,595.643738 C625.159241,598.370850 623.766846,600.952148 622.675049,603.553772 C618.556458,613.367615 613.067749,622.587219 609.980896,632.850220 C609.263000,635.237183 608.734558,637.596252 610.044067,640.009521 C613.029236,639.902710 615.559326,638.500488 616.223083,636.227478 C618.015076,630.090698 622.593933,626.389954 627.482300,621.915588 M420.883575,369.438171 C424.386932,363.788788 430.219788,360.512299 434.716644,355.873230 C436.085510,354.461090 437.066254,353.077667 435.879700,351.051605 C434.726196,349.082001 433.382385,347.503601 430.802429,347.819946 C427.470978,348.228455 424.595764,349.107513 422.062866,351.814209 C415.901581,358.398315 410.347565,365.429169 405.423828,372.937561 C401.918488,378.282959 399.033478,384.182678 400.802795,390.751343 C404.182648,403.299225 406.408020,415.955933 406.353851,428.976166 C406.347534,430.493988 406.337982,432.220703 408.322906,432.455811 C410.599915,432.725464 413.071045,433.255066 415.055725,431.630920 C416.981384,430.055084 416.715851,427.851227 416.284546,425.642395 C414.604431,417.037384 413.127045,408.389618 411.268524,399.824097 C410.543274,396.481628 410.787567,394.116241 414.468750,393.489136 C412.598907,384.346313 414.251373,376.581238 420.883575,369.438171 M337.614594,316.945801 C337.654236,315.615662 337.709503,314.285797 337.731049,312.955383 C337.863708,304.764008 331.212311,298.234192 321.233521,296.750854 C313.647003,295.623108 306.535614,300.223541 304.589478,307.771667 C303.807556,310.804352 303.289032,313.906586 303.304718,317.118317 C303.370361,330.546448 314.884460,337.544312 326.719666,331.289978 C332.305115,328.338348 336.280121,324.164429 337.614594,316.945801 M440.086945,225.361984 C427.563568,220.529175 417.236023,225.123001 414.615570,237.929459 C411.898468,251.208221 420.963531,261.252594 433.505890,258.551178 C440.525757,257.039215 446.488800,249.416245 447.690369,240.418167 C448.953156,230.961380 448.543213,230.084976 440.086945,225.361984 M285.183319,730.350586 C280.773590,731.594238 282.535675,733.326355 285.016724,734.607849 C301.830902,743.293030 310.144745,757.119141 310.336609,775.957092 C310.351898,777.457153 310.303070,779.270264 312.394928,779.282776 C314.765564,779.296997 314.701416,777.351440 314.697144,775.660828 C314.687439,771.838867 314.721100,768.014771 314.608398,764.195312 C314.204712,750.518677 314.527374,736.953247 320.156311,724.111755 C320.491028,723.348145 320.616638,722.503479 319.217285,721.133972 C308.871948,725.797485 297.573944,728.697266 285.183319,730.350586 M349.520233,692.768494 C355.079987,690.412170 361.173370,690.187805 366.876984,688.421021 C368.921844,687.787598 371.287537,687.311035 370.352631,684.132141 C366.883972,672.338379 363.484467,660.524231 359.986938,648.739075 C358.731262,644.507874 355.179657,645.054199 352.133575,645.649902 C348.754333,646.310791 349.251740,649.172119 349.617920,651.707458 C351.116364,662.081604 350.319519,672.182190 346.546112,682.065186 C345.069702,685.932068 343.322754,689.885925 343.617462,694.124207 C345.968506,694.912781 347.298889,693.637207 349.520233,692.768494 M454.340027,381.992493 C456.687622,378.873901 456.682953,376.326080 452.665497,374.610138 C451.935516,374.298340 451.346863,373.614655 450.746857,373.045807 C444.479248,367.103912 439.360626,367.386536 433.871185,373.983673 C432.067474,376.151367 430.308136,378.360199 428.421967,380.454285 C422.033875,387.546600 423.975281,395.272797 426.257050,403.970276 C436.800018,397.675751 449.706848,395.911316 454.340027,381.992493 M411.086945,482.036346 C409.676758,481.718781 408.344086,480.749420 406.508728,481.638763 C406.407135,483.132751 406.269226,484.759583 406.192200,486.389282 C406.080200,488.757812 407.339294,489.854126 409.584869,489.508087 C417.777008,488.245697 425.957581,486.906281 434.133759,485.543610 C436.986420,485.068176 437.450409,483.275360 436.613556,480.763855 C433.101868,470.224762 430.507782,459.354431 424.052582,449.965027 C420.664856,445.037476 412.566650,442.207733 406.590515,444.579987 C407.430603,446.352539 409.180267,446.419128 410.739777,446.902100 C420.609406,449.958832 425.045197,456.468140 424.321167,466.754791 C423.756378,474.779846 418.048523,481.846680 411.086945,482.036346 M431.513275,790.330566 C427.586243,790.330566 423.659180,790.330566 420.319519,790.330566 C420.319519,795.946594 420.321960,801.239929 420.318298,806.533203 C420.316895,808.536987 421.231873,809.669495 423.308624,809.670288 C429.957733,809.672913 436.606812,809.655457 443.255920,809.663696 C445.480042,809.666443 446.661469,808.555176 446.817627,806.377991 C447.174011,801.408691 448.212738,795.788757 445.778015,791.755005 C443.784973,788.452881 438.355743,790.762878 434.475006,790.342041 C433.817749,790.270752 433.146179,790.331543 431.513275,790.330566 M453.906372,348.449646 C459.162720,344.064423 465.205139,340.813629 470.701660,336.798767 C472.899658,335.193268 476.048065,332.952911 473.633575,329.417358 C471.529938,326.336945 468.366516,323.091888 464.554993,325.175995 C456.446930,329.609497 448.814880,334.913574 440.575745,340.121216 C444.624146,343.180817 446.329071,347.004089 446.995331,351.180969 C449.753510,351.347107 451.471069,349.967621 453.906372,348.449646 M695.304932,808.872498 C690.365356,813.872253 692.800537,820.537048 691.484314,826.355103 C690.985413,828.560486 693.367676,828.690125 695.062622,828.567078 C698.037048,828.351013 700.967407,827.775452 703.996643,828.172852 C709.888489,828.946045 711.536621,826.884033 709.955261,821.174377 C707.625427,812.762573 704.982361,804.416992 704.263916,794.804199 C701.166626,799.742126 699.315613,804.582764 695.304932,808.872498 M428.400818,294.797394 C430.474579,293.500305 432.548340,292.203247 434.717987,290.846191 C433.082947,286.476349 430.966309,282.668060 431.811249,278.095673 C433.163757,270.776154 433.045746,270.754303 425.637817,270.369080 C417.313934,269.936218 417.109100,269.943451 417.410248,278.469910 C417.680359,286.117157 418.630341,293.714874 421.171143,301.481293 C423.754120,299.033539 425.778442,297.115143 428.400818,294.797394 M456.320709,425.115540 C456.514404,426.871338 455.662567,429.064026 457.565735,430.173859 C459.559570,431.336517 460.945099,429.448181 462.383514,428.464600 C464.577789,426.964142 466.702820,425.354797 468.786804,423.702881 C470.752319,422.144867 471.044891,420.306366 469.901398,417.962036 C466.687042,411.372101 463.899109,404.612762 462.536621,397.344788 C462.296631,396.064453 461.822479,394.770996 460.327454,394.286133 C458.824860,394.847229 458.747803,396.269440 458.269012,397.486542 C454.843109,406.195007 456.866791,415.289581 456.320709,425.115540 M556.623047,813.919128 C565.217407,812.283630 573.335632,809.202209 581.776001,806.204590 C580.589600,802.792358 580.178894,799.016235 576.300537,798.965332 C570.362000,798.887390 564.410278,799.620850 558.468872,800.072266 C556.545105,800.218445 555.378418,801.372864 555.430603,803.325562 C555.522278,806.756042 554.704773,810.244080 556.623047,813.919128 M200.444824,815.372681 C198.733948,815.609192 196.853790,814.627686 194.822510,816.339905 C201.732239,823.504822 208.364975,830.701172 216.357391,837.164001 C218.857422,819.707336 218.558548,819.254456 202.749695,815.630188 C202.265854,815.519348 201.766113,815.477905 200.444824,815.372681 M711.683289,621.210632 C710.646790,618.923706 708.896851,618.395264 706.838440,619.610657 C704.567688,620.951355 702.320312,622.401489 700.305908,624.093445 C693.988953,629.399292 693.992188,632.843506 700.240112,639.148743 C704.296814,637.406616 706.753662,633.751282 709.809082,630.798828 C712.436279,628.260132 713.452759,625.343933 711.683289,621.210632 M450.005676,329.481049 C452.427643,327.490051 455.574188,326.367157 457.800171,323.540588 C448.688629,322.164703 437.152527,329.001892 433.503937,338.062347 C440.414307,337.808868 444.178253,332.324615 450.005676,329.481049 M335.711609,571.333984 C333.018768,571.722351 328.773346,569.867126 328.597748,574.354614 C328.459473,577.888916 328.721405,581.916138 331.498871,585.322021 C334.926666,582.102722 336.412201,577.969910 338.591248,574.333801 C339.773254,572.361450 337.937439,571.830139 335.711609,571.333984 M368.253601,542.297180 C365.430878,541.439087 362.103699,539.019226 360.793488,543.936523 C360.441071,545.259155 360.982635,547.373230 362.568146,548.251343 C364.483124,549.311890 365.993378,547.722961 367.507599,546.888245 C369.189880,545.960938 370.602997,544.737427 368.253601,542.297180 M405.512787,463.896149 C407.617096,463.522705 408.847168,462.144409 408.456482,460.149323 C408.064758,458.148865 406.446472,457.375610 404.123596,458.048737 C404.193787,459.974365 404.040009,461.876648 405.512787,463.896149 z"/> <path fill="#371087" opacity="1.000000" stroke="none" d=" M799.036133,288.232819 C801.923157,294.896362 803.546997,301.367706 803.420654,308.381470 C803.172058,322.193115 795.888855,331.888428 782.366028,334.745636 C774.811340,336.341827 767.307434,338.630646 759.272461,336.475952 C743.120300,332.144531 734.898987,321.100677 735.531067,304.797424 C736.089661,290.389526 743.747498,279.247162 757.268433,275.343414 C767.330994,272.438049 777.341736,273.012238 787.108337,276.808960 C792.489380,278.900848 796.062317,283.020081 799.036133,288.232819 M752.286743,291.829010 C742.632935,304.901764 747.605347,322.693115 762.054565,326.150391 C768.616516,327.720459 774.951050,325.727051 780.977295,323.255951 C787.545593,320.562561 793.090027,311.657623 792.529724,305.394958 C791.836853,297.650757 784.152344,286.676971 777.684875,285.748901 C768.872559,284.484406 759.967346,284.482178 752.286743,291.829010 z"/> <path fill="#371087" opacity="1.000000" stroke="none" d=" M691.501587,383.710632 C684.703796,379.426025 683.765991,375.529968 688.097839,371.349426 C689.805542,369.701477 691.307678,369.481537 693.399048,370.677124 C717.000671,384.168732 739.255066,379.006165 760.834473,365.600586 C762.580444,364.515961 764.197205,363.613281 766.324402,363.651703 C769.409851,363.707428 772.032288,364.581696 773.049805,367.714813 C774.040710,370.766327 772.865662,373.288086 770.210693,375.025665 C761.255005,380.886810 751.873291,385.839508 741.178711,387.653442 C727.834778,389.916687 714.457764,390.666534 701.172974,387.303589 C697.976562,386.494446 694.942505,385.043976 691.501587,383.710632 z"/> <path fill="#371087" opacity="1.000000" stroke="none" d=" M752.736145,263.707336 C750.144287,259.868011 751.510681,254.545135 755.426147,254.052399 C765.233093,252.818237 775.067322,249.726456 785.030640,252.955795 C788.022766,253.925629 790.897705,255.271698 793.789185,256.530762 C795.128296,257.113922 796.820312,257.671173 796.133972,259.701538 C795.540100,261.458405 794.711243,263.196686 792.493042,263.318390 C790.500305,263.427734 788.484253,263.533600 786.502869,263.360840 C775.353088,262.388611 764.270813,265.144287 752.736145,263.707336 z"/> <path fill="#371087" opacity="1.000000" stroke="none" d=" M721.895020,402.885864 C726.137939,404.268250 729.862610,403.430603 733.597351,402.521362 C735.194397,402.132568 737.027710,401.468109 738.054138,403.385162 C738.929443,405.020081 739.172852,406.834869 738.204834,408.642273 C737.059204,410.781281 735.505859,412.394623 733.132629,413.143463 C724.107422,415.991241 716.586426,412.614227 709.526367,407.418915 C708.534485,406.688995 708.026978,405.575378 708.638672,404.335266 C709.343384,402.906403 710.572388,402.059418 712.127991,401.789551 C715.331543,401.233826 718.380859,402.224335 721.895020,402.885864 z"/> <path fill="#371087" opacity="1.000000" stroke="none" d=" M830.444275,330.529724 C831.442322,327.491638 832.306335,324.820038 833.165222,322.164307 C839.909668,321.033447 841.337402,322.090820 841.283875,328.748932 C841.243774,333.737549 839.443054,338.168732 835.808655,341.672211 C833.544128,343.855225 830.731079,344.433868 828.091492,342.616699 C825.472351,340.813629 827.112610,338.499969 828.012634,336.395142 C828.793701,334.568665 829.545532,332.729706 830.444275,330.529724 z"/> <path fill="#371087" opacity="1.000000" stroke="none" d=" M255.938477,344.457153 C242.846985,346.983826 231.343903,344.561188 221.542252,335.919067 C213.630798,328.943573 211.687531,311.628387 217.436935,301.519714 C226.812943,285.034698 248.491623,280.283752 263.654022,291.600739 C272.727356,298.372955 274.988892,308.225677 274.119324,318.766876 C273.150940,330.506104 269.097351,340.575287 255.938477,344.457153 M263.118835,320.612000 C263.795349,317.558655 264.660980,314.632629 263.608704,311.359100 C259.049042,297.174286 246.661224,292.141724 234.104523,300.009735 C223.831009,306.447113 222.795456,320.199524 230.479233,327.648163 C241.059006,337.904144 257.046356,337.692932 263.118835,320.612000 z"/> <path fill="#371087" opacity="1.000000" stroke="none" d=" M235.681381,370.857361 C239.952209,372.187286 243.023575,374.774292 246.318909,377.023193 C256.169403,383.745575 267.145447,387.282166 279.023010,387.570923 C286.183350,387.744965 292.574493,384.734802 298.839050,381.529144 C300.923431,380.462555 303.204346,378.790405 305.384674,381.841187 C307.401428,384.663086 307.762024,387.113892 304.363434,388.834381 C293.358337,394.405426 282.213959,399.789825 269.347351,398.229279 C256.123047,396.625336 243.948776,391.893494 232.603531,384.982086 C229.139374,382.871704 227.335403,379.528381 228.102097,375.724762 C228.779419,372.364532 231.690842,370.699402 235.681381,370.857361 z"/> <path fill="#371087" opacity="1.000000" stroke="none" d=" M186.153839,353.899414 C186.358810,354.428314 186.433975,354.580963 186.466827,354.742188 C186.968689,357.206024 190.200714,359.899902 186.172028,362.025635 C183.331039,363.524628 179.591522,361.339050 177.918549,357.468903 C176.134552,353.341980 176.650299,348.987701 176.758881,344.684235 C176.806961,342.778442 178.127090,342.232391 179.772781,342.070770 C181.932510,341.858704 183.321213,342.830475 183.871445,344.854156 C184.652313,347.726135 185.299850,350.634369 186.153839,353.899414 z"/> <path fill="#371087" opacity="1.000000" stroke="none" d=" M510.289551,209.746140 C525.014221,211.495636 535.577820,218.294479 539.439270,232.747498 C544.513306,251.739304 529.615356,270.669067 510.800293,270.656097 C483.412933,270.637207 471.517242,243.817780 482.622498,223.259552 C487.179260,214.823929 494.113739,210.008759 504.131836,211.103317 C506.318237,211.342178 507.902069,209.914230 510.289551,209.746140 M498.722015,256.855255 C500.068176,257.500397 501.372711,258.258301 502.767181,258.772461 C512.034851,262.189697 524.518250,256.027710 527.509094,246.601852 C530.926697,235.831131 525.550537,225.360504 514.968506,222.827759 C511.801361,222.069733 508.368652,222.433472 505.059052,222.256058 C499.347992,221.949921 495.626862,224.925018 493.126038,229.674026 C488.572296,238.321594 490.755524,249.866806 498.722015,256.855255 z"/> <path fill="#371087" opacity="1.000000" stroke="none" d=" M535.348328,202.157959 C534.311829,207.688110 531.877808,210.100555 527.038452,208.076431 C516.536499,203.683823 505.514648,204.796997 494.742493,203.435303 C491.828156,203.066879 489.642395,202.499542 489.615295,198.825912 C489.586243,194.889404 492.128052,194.966461 494.900909,194.571335 C506.267426,192.951614 517.592590,191.309814 528.745239,195.762482 C531.719482,196.949951 534.757141,197.955673 535.348328,202.157959 z"/> <path fill="#371087" opacity="1.000000" stroke="none" d=" M577.145081,280.043640 C579.114929,276.057007 579.821960,272.202820 579.705139,268.130005 C579.661560,266.610413 579.075867,264.563599 581.307190,263.931458 C583.168213,263.404236 585.001770,263.799347 586.369507,265.245972 C590.422119,269.532410 589.945190,274.811005 588.771423,279.809204 C587.642456,284.616638 584.242188,287.836731 579.252380,289.040497 C577.577576,289.444550 576.341309,288.689667 575.340210,287.454803 C574.278748,286.145477 574.204041,284.736115 575.095154,283.300049 C575.705688,282.316162 576.343079,281.349030 577.145081,280.043640 z"/> <path fill="#371087" opacity="1.000000" stroke="none" d=" M510.042480,540.822937 C507.772400,543.652527 505.568207,546.088074 501.896698,545.019714 C499.632629,544.360901 498.301849,542.251465 498.095306,540.140503 C497.738708,536.496094 499.191071,533.305054 502.209076,531.043762 C504.006927,529.696716 506.099945,529.445618 507.620209,531.204712 C509.876678,533.815796 512.261841,536.593384 510.042480,540.822937 z"/> <path fill="#371087" opacity="1.000000" stroke="none" d=" M505.008453,479.518250 C505.188293,481.166412 505.347412,482.437195 505.631226,484.703827 C501.175537,482.589874 501.387726,479.381439 502.124786,476.521942 C503.054901,472.913422 505.029846,469.967987 510.883881,470.607483 C506.893402,472.948578 504.130920,475.036133 505.008453,479.518250 z"/> <path fill="#371087" opacity="1.000000" stroke="none" d=" M359.458069,582.514038 C367.059448,572.486084 377.214447,566.644287 388.187347,561.958862 C390.509613,560.967285 392.932251,560.583984 395.476166,560.627808 C404.942505,560.791016 408.170959,566.801331 406.790527,574.003418 C402.780273,594.926147 391.713196,610.989868 371.449554,619.593445 C365.186615,622.252625 358.839905,622.272705 353.663574,617.669922 C348.274261,612.877686 347.852661,606.391785 349.991547,599.752014 C351.996704,593.527527 355.018463,587.830383 359.458069,582.514038 M387.796204,572.527466 C389.061096,573.328247 390.193726,575.303650 391.794952,572.927124 C392.943695,571.222168 392.508087,569.764160 391.056305,568.577698 C388.402954,566.409424 386.282166,567.726013 384.196045,569.495850 C384.798065,571.191101 386.299591,571.350708 387.796204,572.527466 z"/> <path fill="#371087" opacity="1.000000" stroke="none" d=" M685.083008,295.483887 C685.238647,296.211914 685.282654,296.542206 685.301514,296.873901 C685.538269,301.040436 683.863342,304.100922 679.737732,305.149872 C676.881958,305.875916 674.333069,304.693604 673.154724,301.907593 C671.580322,298.185333 673.573608,295.537872 676.407104,293.357269 C679.909241,290.662079 682.555298,292.300293 685.083008,295.483887 z"/> <path fill="#371087" opacity="1.000000" stroke="none" d=" M315.320374,315.281799 C314.138794,311.798676 314.704224,308.987549 317.053253,306.666351 C319.648834,304.101532 322.790649,303.950165 325.794861,305.531433 C329.124664,307.284119 328.932678,310.625916 327.804993,313.432800 C326.568298,316.511017 323.970154,318.533081 320.328766,318.047363 C318.544983,317.809387 316.732330,317.241547 315.320374,315.281799 z"/> <path fill="#371087" opacity="1.000000" stroke="none" d=" M433.661194,242.354935 C431.471558,244.574951 429.345978,246.170288 426.437561,245.669266 C423.514404,245.165695 420.907166,243.854675 420.357605,240.661118 C419.707062,236.880539 422.022736,234.464157 425.035522,232.719116 C427.923859,231.046127 430.791534,231.238129 433.205200,233.632187 C435.763062,236.169235 436.174500,239.041855 433.661194,242.354935 z"/> <path fill="#371087" opacity="1.000000" stroke="none" d=" M775.679932,306.921509 C771.675171,309.288635 768.641663,308.156342 766.118530,305.195190 C763.766663,302.435059 764.824463,299.564606 766.353882,296.897980 C768.202271,293.675110 771.292725,293.157684 774.567261,293.883362 C780.354675,295.165985 781.025208,301.379791 775.679932,306.921509 z"/> <path fill="#371087" opacity="1.000000" stroke="none" d=" M240.683762,310.204712 C242.732346,304.391785 245.412018,302.667328 249.812546,303.918884 C253.574692,304.988953 255.158478,308.202972 254.057755,312.602173 C253.013718,316.774841 250.343353,318.815125 246.057800,318.153107 C241.851440,317.503296 240.357300,314.646912 240.683762,310.204712 z"/> <path fill="#371087" opacity="1.000000" stroke="none" d=" M500.043762,242.443909 C499.952087,235.851013 502.876099,231.755615 507.066406,232.302628 C510.386841,232.736099 513.108398,234.426208 514.004822,237.816422 C514.852417,241.022018 513.320007,243.585495 510.813599,245.565140 C508.006409,247.782349 505.215546,246.955170 502.573059,245.287582 C501.634644,244.695343 500.978790,243.655396 500.043762,242.443909 z"/> </svg>
